<mxfile host="65bd71144e">
    <diagram id="adbKyET5oWyZC6LkcFHC" name="Page-1">
        <mxGraphModel dx="896" dy="603" grid="1" gridSize="10" guides="1" tooltips="1" connect="1" arrows="1" fold="1" page="1" pageScale="1" pageWidth="850" pageHeight="1100" math="0" shadow="0">
            <root>
                <mxCell id="0"/>
                <mxCell id="1" parent="0"/>
                <mxCell id="13" style="edgeStyle=none;html=1;fillColor=none;strokeWidth=4;" edge="1" parent="1" target="7">
                    <mxGeometry relative="1" as="geometry">
                        <mxPoint x="348.19938547486026" y="310" as="sourcePoint"/>
                        <mxPoint x="389.93932960893835" y="240" as="targetPoint"/>
                    </mxGeometry>
                </mxCell>
                <mxCell id="2" value="" style="sketch=0;points=[[0,0,0],[0.25,0,0],[0.5,0,0],[0.75,0,0],[1,0,0],[0,1,0],[0.25,1,0],[0.5,1,0],[0.75,1,0],[1,1,0],[0,0.25,0],[0,0.5,0],[0,0.75,0],[1,0.25,0],[1,0.5,0],[1,0.75,0]];outlineConnect=0;fontColor=#232F3E;gradientColor=#4AB29A;gradientDirection=north;fillColor=#116D5B;strokeColor=#ffffff;dashed=0;verticalLabelPosition=bottom;verticalAlign=top;align=center;html=1;fontSize=12;fontStyle=0;aspect=fixed;shape=mxgraph.aws4.resourceIcon;resIcon=mxgraph.aws4.transcribe;" vertex="1" parent="1">
                    <mxGeometry x="260" y="310" width="108" height="108" as="geometry"/>
                </mxCell>
                <mxCell id="15" style="edgeStyle=none;html=1;fillColor=none;strokeWidth=4;" edge="1" parent="1">
                    <mxGeometry relative="1" as="geometry">
                        <mxPoint x="569.2688826815643" y="309" as="sourcePoint"/>
                        <mxPoint x="611.6711173184358" y="240" as="targetPoint"/>
                    </mxGeometry>
                </mxCell>
                <mxCell id="3" value="" style="sketch=0;points=[[0,0,0],[0.25,0,0],[0.5,0,0],[0.75,0,0],[1,0,0],[0,1,0],[0.25,1,0],[0.5,1,0],[0.75,1,0],[1,1,0],[0,0.25,0],[0,0.5,0],[0,0.75,0],[1,0.25,0],[1,0.5,0],[1,0.75,0]];outlineConnect=0;fontColor=#232F3E;gradientColor=#4AB29A;gradientDirection=north;fillColor=#116D5B;strokeColor=#ffffff;dashed=0;verticalLabelPosition=bottom;verticalAlign=top;align=center;html=1;fontSize=12;fontStyle=0;aspect=fixed;shape=mxgraph.aws4.resourceIcon;resIcon=mxgraph.aws4.polly;" vertex="1" parent="1">
                    <mxGeometry x="585.47" y="130" width="110" height="110" as="geometry"/>
                </mxCell>
                <mxCell id="5" value="" style="shape=image;verticalLabelPosition=bottom;labelBackgroundColor=#ffffff;verticalAlign=top;aspect=fixed;imageAspect=0;image=data:image/png,iVBORw0KGgoAAAANSUhEUgAAAUYAAAFUCAYAAABYyZVgAAAAAXNSR0IArs4c6QAAAIRlWElmTU0AKgAAAAgABQESAAMAAAABAAEAAAEaAAUAAAABAAAASgEbAAUAAAABAAAAUgEoAAMAAAABAAIAAIdpAAQAAAABAAAAWgAAAAAAAACQAAAAAQAAAJAAAAABAAOgAQADAAAAAQABAACgAgAEAAAAAQAAAUagAwAEAAAAAQAAAVQAAAAAQjNAKwAAAAlwSFlzAAAWJQAAFiUBSVIk8AAAQABJREFUeAHsnQe8XEX1+EcEFakiSIvwAgJSQ+8lIEgNVTqEjvRepIQmSAslEBCQrvQIoUsLVamBHyR0QhGQ8qcLKiDc//mel7Pevdndt2Xm7t19c/LZ3H13751yZubMmVOdixAxEDEQMRAxUIaB7/BXIlB2N/4RMRAxEDHQTzHwHYHJ+mnfY7cjBiIGIgaqYiASxqqoiT9EDEQM9FcMRMLYX0c+9jtiIGKgKgYiYayKmvhDxEDEQH/FQCSM/XXkY78jBiIGqmJg8qq/xB8iBlIYwHAha7yQ/ZvHRaFXesu+27X0Q/wSMVBwDETCWPAByrt533zzjePz1Vdfuf/85z/u448/dv/617/cp59+qt/5jfv//ve/9blvv/1WiSHE77uTfdd9d3L5fPe7btppp3XTTTedm3aaad33v/99N82007gf/ehHborvTeGmmHwKfSbvvsX6IgbqxUAkjPViqgufg+P78ssvlfC988477s0333TPPvuse+GFF9z777+vxPCTTz5RQggx5Fne+e9//+u+/vrrMoxAGCebbLISkfze977nJp98cjfllFM6vk811VTuxz/+sZt55pndT3/6UzfffPO5AQMGuDnmmMPNMsssvcRSiGqEiIEiYCASxiKMQk5tgAv8/PPP3Reff+H+8c4/3JNPPumeeOIJ9+KLLzoI42effaZEkucgfqFgiimmcD/4wQ/cD3/4Q+UsF1hgAbfkkkvqZ5555nHTTz+9cppwlxEiBtqBgej50g6s51gnR9833nhDuUC4wXHjxrmXXnrJvfbaa+6f//yncoOVZIU5NlGrgquEu4SbnHfeed0SSyyhhHLOOed0fCCkaaDNUXaZxkj87gsDMq96JeUyyaJLoC+sFqAc5H6vv/66Gzt2rHv44YfdU089pVzhhx9+qHJBiCVDX4m4tGsqWHtAH0dy5JQzzTSTm2uuudyCCy7oll56abfSSiu5n/3sZ5EgFmCOdXMToIuRY+yGEZZtDWL46T8/dePHjXc33HCDe+SRR5QYfvTRR6UeThxu/duIYrsIYalRdX5BmQMnucwyy7g11ljDLbvssqrMQY4JIY0QMeALA5Ew+sJkG8oxwoZ2+K233nIPPfSQu/32292jjz7q/vGPf5RkhGlimG1mpxDFdLshhChx4BxXW201t9ZaazlklMglAetTrX6ny4vfIwayGIiEMYuRDvqb4zBH5DvuuEM5RBQomNXAOaYBAmHEIn2/G74jl5x11lmVQA4ZMsStuOKKevymb7ZxdEM/Yx/yxUAkjPniu6XajLhB/DCn4bh80003qXlNlhimK+pmwpjuJxzj6quv7jbbbDO3yiqruBlnnFGP2IY38BAhYqAeDETCWA+WCvLMF198ocqUa6+91t1zzz0qP0xzRUYAss3tL4TR+o0R+corr6wEkqM2dpORKBp24rUeDETCWA+W2vwMhtTjx493l1xyiRt9w2j3zrvvqPwwu9gjYSwfqBlmmMGtsMIKbqeddnKDBw9WL5zyJ+JfEQOVMRAJY2W8FOIux+OXX35Zj8yXXnqp2h4a8csSRWuw/W5/c+XZSvfTz3Tb93SfcUvceOON3a677uoWW2wxdU/stv7G/vjFQCSMfvHprTT8ktEwn3POOe7xxx9XV7x04ZEwprEx6fc0ftgU+BtTn2222cZtuumm6o5ob9nv9ne8RgxEwljAOYCmeeTIkapYwSDbuL30Yq/WbHs2/TvvVbqffqbbvlfCFTjAe2aRRRZxu+yyi8ogsY3kfqXnuw0nsT/1Y0DmQ6+qTiZH9HypH29BnoRLHDVqlBJF3PbMO6WRyioNI0Nc6X4j5XbasxOn9STNNjxMPfXUbvPNN3f77LOPW2ihhfS5aCQ+Cbr67Q3oYvR8adPws0htAWN+c/bZZ7urr77aVfNUqaeZtvDTz1JHpfvpZ7rtu+E12680HnhmqaWWcvvtt59bd5113bTTTZt9PP7dTzEgcyMSxnaOPRFs/vKXv7iTTz5ZfZrhEtMwcXjSt2p+Ty98e5AyKt2337vxWg1vlfBAyLMtttjC7b333uqX3Y34iH1qDAMyfyJhbAxl/p4mzuFFF13kzjzzTHXpYygqLVx/NcaSamFgvfXWc0cddZRG9eFYzVhMXB61Xou/dSEGoIvxKN2GgX3++efdaaed5jDWJvQXwxCJYhsGIlUlY0AEn0MPPdSts846atYTiWMKQf3oK3QxEsYcB5yFRrCHY4891j3wwAMaBZshiEQxx0GoUNXEZaDjMNtss6nccbfddnPTTDNN5Bwr4Kvbb0EXI2HMaZTxYMG3+eijj1b/5pyqjdXUgYE0YeRxzHoOOOAAJZDEhIzQvzAQCWNO4006AVz6Tj31VM2rklO1LVeDrI0PqQggHkSz4TspCSAe/E2iK7x04HotJQLyUzYClEt8UCrxd61gFy03toUCsoSRoujjjjvu6A484EDXM7CHWxH6CQYiYcxhoCEII0aMcMOHD3fvvfdeSaBfxOMzRI/0AiSumnvuuV1PT4+bffbZNVkVnBMhvvgNokiE7e//4PuaGZC+QPToK98ti+AHH3ygMtS3335b0yv8/e9/15QK/+///T/NMkhgjCKAEcZ0W+gHhH/dddd1J510knrOpH+P37sXA5EwBh5bFj5eLJjjkIa0SAAx4IP3B4FfSR9AnpWFF17YkZAKMxbN8DfF99xk3+1NNdBs++Ea4SYhnCibyEZIygVSLzz33HMaWBf88FzRNgw2gA022MCdeOKJkTg2OwE67L1IGAMOGAQAU5wzzjijcESRyDODBg1yiy++uH5wk4M7hBMkQnYeYEdsuGiC7P71r391jz32mHvmmWc0Y2GRjt2IEzDnQRSCz3WE7sZAJIyBxpdFf8opp+jxuSicItwh7m+/+MUvNKkURJGjMcdnFn6eAFdIewz4G5y9++677uWXXnYPP/Kwu++++zRNAxtMEYD2EqUH7h8xQ7YP1dpIYGH6gMsnIgYIPjJX+st3PnCluCnCvXMlIhD15T0u1frQ3+4L7ntnpwxy9JX2NPocF8877zw1FkYJ0U5gwRHZmgRS2OYNlriE5EpBYVIJ6l3sld5t9h51Wr0Tp6MSC4jk//3f/6lnEIF5J0yYoMfxdk5V2rfVVlupzJFNhbFGRPDvf/3bvf7G6yo/JT83bp3vv/++XtkYEamggONZ62+6H5TLmPBB6YMIA1MhOHvSyc4+2+xuwE8HuAEDBmhkcp6Bs2dTy4vDb3Z8O/E9GY9IGH0OHBP/mmuuUSNhFkg7YeDAgZooiiMgx2YWcjUOxBbpxOmQa7OtbiqtVD8cF3Epb7nlFjd69Gg1dSIBWLsAcQMBKMhSSG5ujPX/8c4/3EcffuQ+++wzJYJwg3x8APXxgVhCEOEqGUu4f+TCyINnnWVW9+MZf6zE1Eed/b0M6KKeZ2RyRo6xxdnAkYjoOIcffrhyNy0W1/TrhPKHGG677bYaJIEFZQSHYbbvTVfQphe//PJLxSu+5Ww+KG6yvuV5NQ0uDY01xM808X3VDd59LTPKglvkg+KsR+TDZEqcf/753c9//nONNznnnHP21aT4exUMCH4FwwKRMFbBUAO3UR5g9/bSSy818JafRxlGuAlynOywww5uzTXX1L/9lN7+UoygTJyumurhyiuvdFdccYX6mbMp9UcAH4Yb+s/fHL0hkMiQcXHkO/fgOqudGPoj7mr1WfAYCWMtBNX7G1rVPfbYw40ZM6beV7w9x4RnEcAhYlbCMavbwBb/xOmq3UORcf/992uoNjyK0uHauq3/zfaHuQDnyJGbBGEc/yGSnCIiVMdAJIzVcVP3L0TZ3n///R0cTN5Hux45QsEhEjZrrrnmUkE8RCRNQOruSIc8mCWSGIsjf0ThRRoI+71DupNLM+EU0XTPMcccbu2111ZFHEfu6O5YGf0QRv1FJlOEJjAgypbk9NNPT0Qgjow2t49wiYlwAMkdd9yRCDFuouXd94pEPU8kI2AiMrfcxiHPMfdZ109+8pNk6623TiQwciIKpETkpN03IVroEUQxyhjBQpNA0nuO0JiW5AXs8ttvv73mLUEjGeF/GEAr/Oc//1lDuj377LP/+yF+q4gBTII4Xm+00UZunbXXcXPMOUdXnzYqIqHCzcgxtrCrwKGIcFu5E0Fkkv4IroNwLeJ1kVx66aWJEIAWWt6dr4oCRjsmmuJE3A2TIUOGJHDWcowsjVGocen0cjnxiI1rcsEFFyRiZpYYLu3anTOmeq9KtLL6I/GXShgQQX8ieYqVGOaxKFjcyy+/fCKGzgnH9wh9Y+Ctt95KJF1BIoqGSBhrbNRs6DaHJUBI8stf/jIRc6hEAoCUCGTf2O6uJyCM+TjGUlOXgEwBtaMj+jbfQwP2cgjMjznmGLfooouGrq4rysfb5Mknn8xVxNGpiEvPYTx07rzzTlViCYF0IrN1yy23nLopdmr/Wmp3d9H7sL2RCNyJ2IaVdllBfLDv4tKXSA7k5NVXXy11qr8eb0oIqPHl22++Te6+++5E3PYSFAzgLw8RR8g50K6yOaWIFjvZd999EwnsUQPr3fdTiZh2X9fC9EhMQ5JNNtkkGCFMLwKOgBwFRbETpjMdXqptEFz5iGF9cvDBByditlRxfNJHxjSe4/fKG7vhS7x8EnEpTSR8XiJuj/3ieB0JYwPEAbMYyeqXiD1YxYXnc4EhDD/owIMSZJmAEYEGmttvHkWWyKJFBisuclXHxha6z3HqT2UxJ3/1q18lYlTf9eY9kTA2QD4kkEGy4oor6sKz41mIhSERVpIjjjiijChGwjjpQEkYr0SCSiQSNSgRs5OqBNHGKBLGypyh4aeeKzgUw/Dk7LPPTsB/t4Lgohe6tYO++vWff/8nOf744xOIlhHFEAuN4/OBBx5YIoq+2t8V5Yg1zjf//UYN2h955BGVvUZj7taJnVCAPjeV7DOYQe28887J+PHju9LBYCJZFMxEqImBRx99NJEwXmXcom/CyDHw17/+tZpJ0JjIJU4ckl7zxAT7xBeefyGR/CuJhNxqeDFnF3f8u3GCmMXZCiusoKY9Egau5vrptB8hjNFcByzUAOIB/uEPf3Cvv/56jada/4nI2iR7J4yUTKTWC+yWEsQ3C3/oW2+9Vf2hn376aY2E3S3d6+R+EFFKXAqdWE044SA1iG4n92eStncaRc+rvXBtEv8vkUx5k3AoPjlGPFoQagPUaZ+8+lnUeiQlQCIRixJJKaBeLDJxJxmHeK/9OMEwfPfdd08kyVlRp1JD7SoRyIbe6kcPi6FwIuG81B4uuwB9EcYZZ5wxufjii0tHZyOKXPsrENTgqaeeSg466KCKm1J2LOLf7SeO2IyKz3VX2DxCGONRGixUAZEtOvKNhAonRo4PcS3UUPlCaOMRWsZBzG/cH//4R/UuIs4lcRc7HQj7RdRvYmfynQ/jbWMuG6DOMfLCyIao88B+64S+01bWyI033ujIJX7CCSdowrVOaHu1NkbCWAUzRGohes4//vGPKk+0fnuVVVbRKDlE3waYYP0NIAoAREG8VtxZZ52lOadJZQABKSrYWNF+2onrJoTvRz/6kZttttncwJ6BbvYBs2t+buTGBIeVI6fmZeF5EpXxLoQQQJYNUbGMguQMeuGFFzSdAy6O/A5OSKdgODPcWFvs776u2ff7er6v3608+vLggw868ZbR1MEEx7XfGm1jX3WG/j2GHauC4b/97W9uyy23dH//+98rPsFA26BXfKCPmwQNvfDCC90aa6zRx5Pd9zN4s4XCYifArEQNckTiRtHSCQCRI0K2yJ811zRRssk53dPTowo0I5TkZaGv9RJ5cAP3BafMB4IIkSRlBknBIJYoAtmwIaTgz8Bwan9Xu7Yyb6uVmb0PPsjDTZqNevueLaNdfwsevxM5xgrYJwvdbbfdpkSRyeZ7IrGoDjjgALfqqqtWqL37b9kCFjs4zdty/fXXK2cEQQiBb18YnWbqaTSQx6BFB7mFF15YP2LGpZn7IIAcl61v2TrrnUO8Tznkl+YDsIkuueSS7uv/fu2+/upr3TwgkM8995xuKhICT4km3KRBtXbY76GvxMPEyoIxXXfddaviJXQ7mi0/cowVMMdE22yzzXR3rrZQq92vUFzZLXZPcrNI7Ds1b2DBtHsSlzUwhz9IByHRo92f/vQnhxw3i4N6iUjopjIuEKke4QIHS05uIs4Q4Yi8KciHgWxbm50XffWl2hwRDxSdp+TgRhTxwAMPKCdpR3TKzb6bbXNfdbfyOykUhg8f7tZdZ11pSC++su1ppfwQ70r7IseYRSzpMElqhW1WCED+RJ4W0UZPsqhC1FekMj/95FN37333KkG86667NA+ztS9LHO1+u66MD0nGCPmGrIxo6US8NqhGXKrdt/d8XNO4IpfLMsssox8xa1Iu8r777nPgF67tk08+mWTj8dGGesuAsxVvLpWldhznKIiOAAbEQoYIOmuttZbay8nGUTUYLb/J5Gj4IylW1c9UdvR+Y69IcF0xBk522223RORyNXFqOE9fm8Fzs+/IxqXBEsiHInK8jgwMjCfKa6+9llx8ycWJpCxIZphhhtI8bXbeNotPe0847TJb3SITHGlzLxS5kXm3jSjZIjfqcyI1M8GE60jkqKNdgjB2M1j/XnnlleSUU05J5ptvvhJOZdYV6jtjKcdjjeMoCqCuSh1BJG6I/HrrrZdMP/30VTel0GMCjldaaaVEOMjCT/uJZFHP/YVvbF4NPOqooxLRKJYWbjUCWO1+tQmGAawIo/PqRtvrIY6k2CMmomBKRE6n+GwUZ9Vw6fM+Xk3bbLNNIgqgRI6dbcdbqAa8//77iaSY1QhRYh5Wmt8+cVlPWYQuY7MsMkg/eqHIjcyzbW+//Xay2mqrlU2aaou52n3BaNn79reYLyTi55tnd9pSl5iXaBRt3PjEpq8iLgwn7bwSIUaUYMntt99eCtzRFoTlWKkG4hCOTQywE04vhn/mcq2PPefjSrCU7bbbrtDug9LPXshxbApRlZgQlNrBkQ8ZmBgYq2teNpRVNQJY7b5gtDTh7DvhyuAWxeasVG+3fcGNj8yJ++23n7rxifa9hIfsojO8tOMKQVxiiSWS888/P4GL6o/APBQ7XfVBrxTLMvR4MQZHHnlkQji/IoLMy+7PKy2In8RcAdsqTEbE6d298cYbTnJauOeff15NR/g7DTJJKmqPq91Pv2vff/azn6mbGzl8uxEwgscd7PLLL3eYjfRlT8eY5A2YSUnaA4fmdujQoQ4zErxP+jOY2ZT46juiFrEuAOZ2GkKMl+TkcacOP9Vtu822k9SXrrsd36X/vQgoItUO0ab33nsvueWWW3S3Wn/99TWpFQJpZGBpDkcGo4zbSf9t3wV3pWfsXrUrQT0JSNFtQPQbIYaJhEwri6JtuOFa6VMNT6HuM8akuxV3taTbYge2OqcsYIeYkJWlmk2PW6hxQSH32GOPtdoF7+9Lf3vBe8kFKRCZiuyKyb333pugVBHfZDUXkV7XTdRafVa8F5JRo0YVBCOtNcM0zRzFyJaI0oLoQK3iKNT7HNnIk3zdddd1tWKllVG1McU0ieNt2rSHcUkTyOz3VsaNsmBGUMZQN2BtaaU/Pt6VfvWCj8KKVAZJpNiJTj755GT11VdPsE1Dzie9zf2DMkeOmkVCT9NtYaNBjjhs2LDcUsg2M2ZYFYjLXiK+uon4FTfd3/7wIsTICJLklU7EG0mzAkK4wH2WGKb/bmZssu+QzoOo7MbJW1vaiXtpYy+0sxG+6mbRiu9ocskllygnI3K9pJ1mCYJZjeOIDV83ANn4zj3n3ES8LNq2yYDTvj7YoJI3Z+zYsR1pnN3uucI6Ijc345zFdZooGuHMPtPM3wMGDEhERt3urpfqlz70QulOB31J7ywQxBNPPDER5UahIj2zSMU9q4Ow+r+mGieB+Y2kFdAgpJhayIxRLoJrkT6ktd1www2TO+64Qwki7U9bH/yvZ/FbPRh4+OGHE3GHnGSM08TR5/hLlKlE3HDraVrwZ6RfvRC8pgAVwHqLL6hm71t66aXLjIh97maCoUkmRz33aAMRjTvVJERCXiUkAdtrr73KomjbwqgHB3k8gwyXtLbk/E7jGqKY3jwDTMGuL/LFF15Ub6Csw0OIOUAdv/vd7/RI3e5xk3nbC500wrD6EMRjjz02WWSRRQrFIQo2S0SUPBjITv779X87Cb1KTCT2n2445BA2r5V032xh2DX9W17fEdyTLRAc017Ds3G6du0o5BewschoxbypZLVhY87V11hbWRid41Pf7k1N+tULBRyPik0iwAOcwWKLLVYaKOmBtwHyWRa+t8hq2r37VURk5qa10dz4EElUIog+8dNsWSwiAlGQavapJ5+Kx+XMWIb4E/ny1ltvXZoTRhybHcPse1Ye16HbDlVnixD9qLdMaV8v1PtCu57DXu7WW25NNt9887YrVARjdRHi5ZZbLmFCdQKAX2RzTP5pp51W+8ckrbeveT2HPSJufJg/oUGNkB8GmMusPzZMI2S+xj1dHmOMArWdIP3qhXY2oq+6OTbvs88+iUQxLnGJhsgiLl7BqGqjSSeJ4qLIAKeI/zZtBb9FxSeLUSJYq8um2bwVGa/d2jbxDlNjfua4z092PWNvjHikXdBLFelhAQHf5WuuuUYXhGlDbTDSiCziYsY2i5SoyEOLCBBEvIBOP/10DSZA5B/DbVGujCtyRAj20UcfrRFZiorPIo5xqDaR/3zQoEFe50t6PTP/2AixQW7XeEsbeiEUEpstV3KBJPvvv38y00wz6QBkiV8akdnfpEdeB62Z8ghlRR+KCHgC4QkiSYoKLZZg7DnaY+5kxr9FxGd/bJNkz9QNq5m1UemdSuuZEwKnxXaAtLEX2lF5tk64GBbAlVdemSy//PKlJPeVCF8lREpP2k4QrQ0oL+DIigT4xN55552qYcxGELJ2F+EKt7DOOuskf/7zn9Wds0g4jG3pxQDRqDCtweXSx5zJrmf+5tR13HHHtSUilfSpF9o64BMDWaNxxgRHom54Qbb0rC3lMKikL0AUUBSYMGFCctBBByVzzz134eSI4MvGCvOrs88+O5EIRyXUmca8dCN+KQQG2PhRxtjYhbjOP//86s2Wd4elL72Qd8XZ+iRUlbrx+dqBpFdBB6xW+Sz0448/PsFAup0AQUFRQdRmOPCsnLZWH/L8DfnmnHPOqQq2J554omR+Q/vt0048xrqrY4B1u9RSSwVba8zZY445pjQnqrfE7y8y/3vBb7H1l/btN98mN99yc7LCCiuUjs7SomCIzqNsglUQ0r+dICk19ShKUi/MH/LodzN1EMllyy23VJfDNIdtBNGu7cRlrLsyBhgb4Oabb9YgLc2Mfz3vEPmewCV5grSrF/Ks1Or67LPPNIoy3IK0onBHPNrUzAc7QDR37QIJvpscfPDBhU4rgPsXXOyFF16YEAkJYJM0Qpi9tguXsd6+MUAIut/85jfBAoswVwjEgow8L+iliqz+nAF5Iiyy5QTBLCMta2qGIBXlHbwyOGK0A6gXA2gzvykaTjka4WaI+c2LL75YhqIsMUz/XfZg/KNwGMC+EYeGUGtQ8nrnGj5O+tELuWB6opIFoe2+++5b8rCQFihRZBHbh3ud+pl33nmT555/LheUpishwhCGsYY3w2VRiCNKtT333DMhakv0WkmPXOd/x7f5qquuKovibvPQx5VTGJHiATbM0CBt7oXQFVn5ZOEjzH9RFQGCjRJhafY7kV4mvDLBupzLldzB4NU4xWbb7uu9NDEmJiYhpUgp0a32iHg4kbri448+Vm8nM0zOYxHnMsHqqAS5NsEmbA6lN2b7br81c91iiy1KYpc6mtPSI9I+Nzn/5QEkTJLjs5MIwU7kBZoAR1qfR9V91iEDhzihz+f6eoBypp1mWvf9H3y/r0e9/v6Xv/zFjR49upTMyGvhTRQGLsXCwC266KJu0003dVtttZWbZZZZmiipuK8I1+tEKeCefPJJJxFonIQ8c//95r9u5p/M7CSAiBMDZSfmR064neJ2wmPL6Kfk1XFikO9Y675B5PaasE5k076LrlheLoRRzEac5FxxV199dYkoVmxNG25CzPgAPojjlD+cUomClWdlawUB/mOBiuG2E64xQOnNFUk2PskH4zbbbDMnCY+cGG03V1AB3xJlg5OoSU68P5ykIFWiKKZZZS2VE5ET7ycnpwe3ySabOEkW5iRuZNkz3fgHm4HkcHEjRoxwwi177eI777zjJNCJbjiikPFadtXChCAEAxQt22+/fVlUDiEWbVO2UDfeFRg7r7rqql7NWSh72223LWUERNMaGh544IGy5OkyyKXjTB7f02OJLIhk6sgR223HGQLvuHkiHzdLir7wC26QrYITchDlqVkN0f96ymTsyf5n8yJ97Qtfff2++OKL5xLlW9rRC/V0uJlnULQQARqVu9Q0CbK4l+cHLThmIhhgYxuF2xlxE321Ae06kWowRQLyIIyEaGpXoi/DG0F5kSMigO/GNLGE3D/ttNM0wRZjbP2udYUgpJ8VLjo54YQTNGpMN6dcwB6VNZAmiPa9Fr7q+Q15NS7DofEnbemFZoheX++geTz88MMTFo3UUvoYkrim74f8TopPOdap4TWT3LgZkc15dYZnIRD8wsKN5SF8x/QlJO76KptdnGx8uPHlsRH0Ne98/k7ADYz1CbiRnsfpOWzfs3iy++l5zsIePHiw2m+m0zD4bHMRysInn0AqaZyk8ZC+X+93wycKHmM8QvVV2tQLvitAK3fmmWeW7BSlljIk5fX3NNNMo3lXrr322ooBCW6//fYSx9jqwNEnI4x5aV/ZfNBG54XPdD0zzzxzcsABByRPPfVU28JD+Z63Vh4cyZgxYzS6j4+AG9m5xbxko6YODKTz2ECtb3lcmZdERkrPl1a/Gw4Jefbyyy8H7Ya01b9WWlrsxDTDDR8+3MmxijpyBzkyO9mZVRAsCdedcIzaBtoGCJL12un/0Z90n+x7yH6JG5+TXN1OAmU4sZssKZpC1plX2VhLiOG5k+OaKgpfe+0171Uz9yRiupPN2j3yyCOqtd9hhx2c2L86lDbdAMIZOwkw4e666y7V1vvsk6TfUGsASY/ss9hJyvKuLmSwJSSRk1Dok1QW+obY8Tk52jlR9jjJ0OeEq3HCxZWq7RaCWOpQjl9EjumWWGIJJ7lWnKTVdBIvMcfaw1fFfL3++uvdZZdd5iQOoEP77BOYe7Zx2TzErEWiCbn777vfbTt0W93IZ5ttNp/Vtq0s8YRx4ufslTCCN6wv5JSi6ztk57wSxrffeluJoiQ7D9nmsrJtwrFQIYZ77723W2CBBcoIYtkL8Y+GMMDGItnbnBjY6obT09NTWuANFVSwhyFSzB24Nzgb8dt22MqJGCRY/4wgGirALVzqE2OfcOPGj3PYo7LxwJGLTNMe68grJ4vVVltNuWLMmWxTaLUzIuZQjlF87B11hAJvhFG0UW74acPdbbfd5t2GqVbnsWmSwLBup512UsKIvRiDYBO/1rvxt+oYYBHDcQ8ZMsSJuYmTCEjVH+7AX778z5du7JNjnShX1CYRA23bZPPqjhEL6oVDFZm3ckPYf7IRwaHnZrPnsdP0C6KP/eYf/vAHJ4FNPJbunLi/uhdeeMGFNPb2Qhih4hhvcwzxbdhZC6PIMiRslRMlgHKJ9mx2Z7b78VofBuBWkM0i+2LyiQKi7MVOxi+LlkUlvrcqC0emaJ5YZZ1s0x/I0EaOHKlG5BBINqUe4dI7CWx+cNKQeI3eCaNYQLhXXnml+IRx7BNj3VkjzspV2QI3s9tuu+mnWXcz27GZdOnvnTIJ021Of2+2/XioIBcCryajVXuCifixCd9s+e1+T8xvnMQPdBK8V135IIgmg/aBv2r9a7RsmAu4IrF7VC5SbIHdeuut5yS2ZrUqCnl/+ummV08VsRduuX1pHMJdi9mdE+uXYF5VLXOMHEHOOPMMlZG03Ps6C2DxHnrooar50qMGyubuUDTXiQG/j0HwxJvDbbzxxqptlpDySjBsMorTpN8Kcy4NMQ/yw0svvVTdypArGlgf7e8iXSHcjz76qMrUIIyIiyQEV8dYAkw+xeTqL86Jg03JJ0ioM2XEQikBWyKM7GzIEAhgkBcwMQhGsdJKK/1vt+jsdZsX6irWM91006k/L4EekCMS/CENxiXaNf1b0b9L6Fv36COPauASTMiQdRWZEFbDpzgMlMx78L3GDx3ri04ANtmFF15Yg0v4bK/knVaNdyEJI6Y5F1xwgcs60ftEQLoscTtzEs1Xo7Ywwfl04oJN96ld3zFtQv6DFh/zG2w/s9CJuLU5ARGEQ0T2DXfRiQQxOx6Y9xCggaAhaK+xFcRG18QB2eeL8DeRhpZeemnvhJHxJbAEp8cQ0DTHiPF2CI1TpU5yXEbmJe5vjh0I6MRFW6lv7boHpygum6p1pg1GUNrVHl/1Itq555573EUXXeT++te/erdH9NXOZsvhlIad5RFHHKHyR+TBGNoznkUE5NaYz3ES8clAQX9QwoSat00TRkIv3XrrrcF3YhCLlwUyReRgEfxggImaVlp1+kaD/aFEGlJtc9HCsPkZsfJSkJNi3iPpLNz666/vJKqTKjowxA9FLMpbUP9fAwYMcBJlyGucRjYICVKjFgUhTJqaIoyw9OzIElKsfuw08SRHBHEaV5kiWugIfjHA5Op0gAgQMBZ7RMzFGp2TvN/JwHES43S4ZOTEmFgVzbyH+JwwNb4D2NJ3uNBCEEYWE36e4gAfdD5BFDfccEN35JFHqqFx0Mpi4R2HAeYhCw03Poji008/XeKUQhI75mXRNhTsiLHrO/HEEzV4Li6xGFenTwTtHOA55phDifWDDz7otRkEwP7qq6+8lmmFNcwxPvPMM7ozY0oQEvBmgSgOHDgwZDWx7A7EAFwhbnycWjBnIYq5QUiiiHybdAUQYQzDQ9Zl/WnkyppExMXxGnc8Ug2g+JBoPo0U4/VZcMRmAhdLkAyIeBZv2b/rbQAco2+fdqu7bsLILokcB24Rz4GQQOQMhMvkDIkQMWAYgDt44okn3O9//3t30003OYnLZz8FvWKHh+YeDT6mJxhfYyQOt4rPbtGAQAusUzg0Cf+l3jPtih+A7BrCh3YaT7W0DWmreGODlCRcjsAbvmXkdRNGOoHtEDaLWJyHAoS05IdZZ511QlURy+0wDEAQmXujRo3S0wrJp0KBLWTKR9PLyYWj6brrrlvivPBhxm0P8zGO8Sh98iLSjfQbjorwf4i94B7pA4qQvAGccqwnH5JPPGHfGSrXUUOE8YorrlBZRnry+ETylFNO6XbZZReNUeez3FhWZ2KAUwqaR2wRIUCYqUAks9xBs0exSlihLIT5nFYgiGh8SWwFWD3Uj/YXX2bCa5GkCdM1wmGFFjFVanNf98hkePDBByuHa9F78s5eOOuss7qpfjiV4jA7fn21v9rvzAUIra/y0vXUTRiR5eA9wMDTED42UdIFNvud8oasN8Ttsccek3hfNFtmfK9zMYDsCHnZWWed5R566CEHd2Dgc95Rps1lZGEsYAI3YA2BSAdDePzFxZ1Aq+fZEsgtjogWbMMMyn1HkynV1+QX2mzh1SDeREySvCwqL2UTAJ9l/WqynlqvYVXiW9bJydXn0Tzd/roIIw247rrrVOCcftnnd44nBx9ysMoLfJYby+osDEAQWbwXX3yxim3M/CakNhiigAgHhQUG03CBZdG0hRZW9BefSCMhnsjwCNAMh4kMFKJO230T8WZH0wgfbbr4kos1OO7Ou+yswXFRcOoG0GzhdbwHh82J0CdwooAwhiDsdRHG/3vq/9QNiU4Zgn12kICT7GDkpY3QfzHAUZkN+JprrnGS10M1mIaNUCYyKAQGSxoMjs2YuDAXWWiNLjaexxmBXNI///nPVWv+pz/9Se0LTXOaXTu8kzfQBuqd8OoEd9xxx6mROMbhmMZZChDfbTLc+I4OhIYb5QvlZ3Hbah/6JIxwi3ffc7cKv1utLPs+XACAUHjTTTfN/hz/7icYYNeHICKnI/p7XnK6hRZaSDfk9Yes7wb8tFcp0SyxSi9MCAyBZgl0ApHniA3Rt7LTz7ZjiI04mrcQBvJEDzf3wjJu2UMDqQ+O1AijL0IGbQplFVCTMNIBjGgRLoeYrHABBLNEIOxb/uBhPGMRgTGA4JxAJBybifweSl6U7gYLFLngr371KzVlwS7RNmgjXOnnm/0OMUADvO+++6ov8+WXXe6uv+F6DXzAvG83cUz3C79jYiZi/0joOWSmyFd9Ekj6yxr3KRJhvMClz3EzvNQmjN8mKvgGYQY0wtegEikaZQtRXiL0HwxwBEJTipUDtoAkogoxubMYRY4oOaJVsYIcMZtXxde8TtfL8RoREVkA111vXXfJJZcod8YRsJ1AX7M4nzBhgkbvwbwH+0cCt/SIYXar4JNmtNqWet+vSRg//+JzzYeRHcQsQuutLPscwTc5coTwdczWFf9uLwZscaCxhTshXF3aUaDSQvXVYuYXcTyRI7LYkSvmDZjHQJQhyDfeeKP2/+GHHy6To4ZqU73rlTHgZMimZcdrZP+kufCBs3rbEQoPjZRbkzDif/nYY49NsrM0UkG1Z7FW5whdFH/Oau2M91vHAAuC4xqcCASRK1wjEIJLsxbDraEIgfshdiHa13YDBBJlB4bjV111lcpW2SCQlxUJsBEkShGnReT/mC9h29lfmJiahJGwRr5DkjP4LAbMGjDRidDdGMD+EM6ICDAQROIl5gFEc2FBQxRx4wttjtJon5CtH3bYYepqiHIGjzKCIhQNGC/Mjxg7Tnckn6PtjQCmTqz5EJugnkSkfN9QlTB++smnZaYGPism2sbGG23s8ra+99mHWFZ1DDBZEYq/9tprqmnGa4Xsd3kcpXDj4+hHAqlll1nWfe/7vQbM1Vvbvl9QbiBfxwYSywz8ryFA6aAY7WpdmogxlkRBP/744zUG6/7776+5r828R4mTEL6qID9xQkAL7htUkTVZjbqbrLAqYXzyqScVGU2WW/U1jjerrrqqW3a5Zas+E3/oXAywSFCm4CVF9BuMtZm8oQEZGEoOvFbQrJppiC6cWos2dMPqKB8lELEBIJIEf8D+EbyZ/WMdReTyCPJHRGuY9UDId955Z7fMMsvUJX9kXmCF4HM8IN5outNE3BciKhJGqPt9990X5BjNJMDHNJrn+BrC4pQDpwNBZGET2SWrtAvRUo7IEESOeBtssIEGRGWhGHcaYtGE6AdlktgJooMHDvaPFpsgVH31lpvFIeOKfBQiiUiMzQhxRfa5dPkQROMYbWz4vdY76fcrfYfj5tRJea2UU6nsioQRt6FQhraLLbZYNM+pNBIdes+4QTSZJGoiTiKBH+qF9CKp9530c7ia4fuL7R2LxNqTfqaTvkPoifv4m9/8RkUCcN1o8UkBawqrUP1pZCx4FuUsvuz33nuvph9hcyJEWyWg7b7tVCGMnAxyI4wYddNp30CeEdI/zvCjGXwXHctrAwaY7Ni+Ef3myiuvDOpLX617HO9QDuBCiJUDG6+lgG1koVcrv1336cPyyy+vnBiuihjBE8gFAlkkQJvOsR9FEjEyMe9ZbdXV3HTTlyfnQglH2+HsfI0LZU099dRB0FGRYyT2HbHcfAPmEquvvrqb7LuTBaHyvtsby6uOgbffftvdfPPNetwjeKzPDHDVay3/hYXBwqQt5Hv529/+pvJFcp/g0eJzEZbXnN9fiJwwNSLn9w033KAb0OOPP55fA+qsCaLHaQH7R47XWANA2NEpQAihJ76VSpRtR+k6m1n3Y5MQxv/8+z9u/Pjx2gmfEwtXIIxse3p6tHGUHaHzMACHhhkXHAwRZHxP9mYwYvMUrpHArCxQjLk52qE5ZWHy6dQ5x/Ea8yM07av/YnV3+R8vVxkfSq6iAdYH2Kref//9in/kj6x5zP7SoeN8tBubSvKh2/j7HN9JCOPHn3ysRp2+5RmYUay11lp6zOnkSepjQDuxDAgiuU5QrKAYYAEwEW1SFqVPzFvkneRkQfa100476YbcDco+CORCCy/kjjnmGI0EhG0oRtg+o2L7GkfwT3IuxoDo4QR78K1lJxISCiufBNH6PwlhRHBOJBDA56THKR0vBCtXv8T/OgIDcGIoAC6//HKVPUMk05Mx/b2eDrEx+oZ0GygfTpajJ8dOTEvw3CAxFMevTgXrI6ZJuBcuOmhRd8edd6gYgWAcvjmyVvEEIYRzhEgiC+S47XPsOQ2AC8NLq+1Nvz/JLCHRj2kVfXYCTVt0/0ujvrjfGXcm2yeffKKRlc4++2wlMLiJAfzmc240i4m+2kA7OW5a3mW4x6K4Bjbb5/R7M88ysxJ8lDNsWshZIUJFGR9rK6eLatDXGFZ7j/s4imCVEALKCCN2RmiY4Ah8Aho23P/M6NZn2bEs/xhAzvzE2CeUoKBphECmoZXJnC4nj+8QCUx4sLIYNmyYyh/RnEJMmI/83ulAThq0wgTcRdTBmOFe2OmmS32NC2koQvlulxFGNIvsOIDPXQfBMceYCMXCQJbAJRJmbvyz4zU0FhrnECZblTCA/HmK703hPvh/H1T62ds9NNi43KE55SiKYgBtr++Q+94a3GBBRO4h+C59g4NECVVE+WOD3ar6OHlkciGMWLTj3+ob5ptvPrfgggv6LjaW1yIG0twSwnGUKueff77KmPOI9oKBLlFmyNeMvIgjO5pu34bAoCndVxwYsLsk7SmaazJT9ojmFOVGpwNKJsL54V546623unPOOUc3At/K1HbjiX4ScDiUzLiMY2TC+I7wQcMHDRoUXQDbPZMq1A+nhEAcLgojaQTl5rbl88SQrRqCONdccylRwt/WEqbj2gdxJpgrmuVQtpH0jWMmjgyY99xzzz1KHPGggQuxiN7ZdnfK37SfYya4xW4Y8xlycmOM3y3Ha+YMcygUlAgjx6rXJZG5b80WxySiF0coHgYwiCaiC9rbrIA8e8z20XoWLPIwEi+hJWbDhEgawAXsuOOOmgqAHDB41HDsDQlwUhioo3kn7wmGyRxFQ3lUhOxLpbLhhI866ijtE1wyQXJNuVrp+U65h4ULm1hQkEWQiGo9kbBCiXB42FIksqvqle+tfAYOHJiIszlVFA4kz0gi7HhL/UvjRhZ+IiGZEuG6cumrHDkT0bQ21X7hFhOZWDrOvsY6jYvsd9EeJhI9OxG5V0K7+wLmowRJTSRnirYzW57Pv+m/fYTTSsQ4XOsW7qqvZnbM7/Tli8+/SER2nEgkn0QUok3NG594b6WsQw45JBElcRD8S7tciWPEFAOO0TerjcsObG+EYmGAI3P62ByqdQjHibzCsQ5XMZsLMqPL5H7Z+nkPjpIYgMRXhLO9TyI+hZA/puvGde1SCRwLFwlXSyQoZFmdfrwWwu9+ONUPVf6IhQjhzVDQYLPs2/A6jc8Q3zHRgWMMJV+kzSXCCEHELIMrSPQBlNMjrDwW6hGKh4H0OKe/Q7R8AJOXbHzYDmLHmlZupOurVRdHWmIVQiRxRcRWD6PtUIuZdtF/3GKPPvporRMCiZE4XhadDvQN+SMmS8gfCW0GkUT+2ClA++eee+6gzS0RRmwXfcfPg6JjqhPKCDMoZmLhDWMAroqNFftACCLmMGidW93ZWcxwmsgfCXKM7BFuh2AnIQGOGi6VEHy43sH1rrjiimoiQpvqJe4h29ho2dZmOHIsRSD+cORwydg/kpsHsOf4Tl+LBGy4jaZXaLT9JcLIURoNpU9gQSAgTSPZZ/mxrGJhAC03EVVERqcxEn35JzN/WJwQXjiFI444QhU0aK+xt/zggw+CLV7qxRaQwKx//etfVTmDiQ+LM604KtZI1N8aCORgMQxH3LHGGmuoUT/uhWYRULS1yxxYfPHFleutv5eNP1kijBBFI4y+dggIo0W/aLxp8Y1OwQBHZCYryZLgFHHV8g3ZBQrnRmgxonYT6QdTo6yHTrNtMEKcfR/zntNOO03dJLfbfju3wfq9EcOzz3XS34ZXAsyikcdI3PziyfNSNPtH2sm4h4YSYWSHMF9YX5VC3VG+RCgmBnxsgCgmCD6MzIpAIYw55dqCC9lz5ha2h3CpyMmQP6ZdWuttQyN4YI1gY4l5z8033ayhwDjep+MC1ltvSNw0UzZ4wDZwn332Ue6RDQci6du2uZm22TuYexGMOPQcm8wqJF6asc92r9UrnAR2jBG6DwMo1EhPSoCGU089VW1VIQiNEJlWsWKLA6+ZPfbYQ71Z8KKBQDP3QrYF7TheOsg9Dz30UM1/gkKoU4mijQU4QydADmm4Y6wBxMyqMHEOsIlG3uzbesb6b9cSx4igOR08otVJzvtwD5EwGqq740pAkOWWXU7jHK651prqymc9y5soZOtD/njCCSeoWRDGzBiu480FZJ+1Nrd6xZUSN0qUNIgStt1mW9czsKcjzXuyOEKGCkeORxKyXAJUkAArlEVAPWOBORUiDVLOBgfZJRKMnTFulcq8fATJiWik1VCW8osI/dnAu95xZhx5VuTFiSgcEuEiEpmYifhSJ7JrF3FYtU1iYZGIl0ciGfcSjMutv/Qn+7HfWr2KIiORYCmJHEGTTz79pLC4aaZhjLcEFVEnEJw2hCMv4bRVvDXyPvNQrB2S999/v5lu1PWOtKfcjpEbPoHjDJ8InYsBuH7sxghMQLIporegVJMZFowL84EtZH4YlJP3GP9r5GUoE5ARCmH0UcUkZVA2HBURqohsQypU5GG+tPOTVJjjDdYxHDnZC5GpwiXjQikEKrdWMG4EN8FCANk2bSEdcwgoHaWpkMnuCyiLRRVqEvpqZyynOgYQg2DjRoBX7BFNLFJ0opjuEeZiu/16NzdYTFIwZsYH2yJIhZqb2ANja4l5D4opknNxHO10YNwhkCi7iJhl2Qsffvhh74rbSrgy+sQGRNATNmw262DMl1SYiPYp+clPfuKVPRYheCIeBBRfSIhH6cpiE44rYraRiJY3kYADhT4yNzKxJN1BIoEz1BdazMh0rgtxnORobfdkcba8HkROl4jXTnLG6WckIh9rpLmFfhYxCh9xI07ErtQ77aiFexsf0aCrCNA3oiDKJY6RIKVSAfci9FMMsPNig4jHCj7CGDGH4qragWLyg2CnR7+IoPOHP/zBWa6UUP1EoUkSsWFHD3Nj7h2jiaFWWWWVjj9eG77wbDv88MMVpyNGjNBEepw+84BXX31VlW20wbcypmSuE6IjIM8QGKL8WKY/DJCPZ3vxWMHV7pCDD1Hf5m4bOzZ+PjgdoEG+6KKLNJMdx1w2BWMM7OoPu859/s/PVbPL0e/AAw90Dz30UMkKJER9PtveV1lsOIgL8ETCfClPmSrHeMyKzJXRFy5LhJHIG7gH+QIWFbZGvhrqq12xnHIMYLOGSca5557rzjjjDLfiCiu6KX84ZVeOW3aj7pEAJyhI8BOGWPF3iPlKvcjb+WAsbQTkpJNOUn9v24CoO0T95SMe5i/6hmLu5JNP1vwzFnDDcG599Fk7ZUJjUK6xoeOl47UeVPEPPvhgIhOjZZmKdFzLEEQlcixLJBKKjHUxoT/LGDEtEY1pIhM5kcU6yQAhP+pPwBqQQBGJcJIJ8kdZYN7WAmVlP6wT7olrY3LJJZck4u+dyMLuCpSDS9lo1VzP+hkSn9SBKZm4hXqRh0t5vTJGjhGww8YxSif4raXdS0ZYc/tiABuheBggAs6xxx6r4bTY7bNgcyB7v1v/Zg0QRIHwaHi1yKYZvKusEY7UxEQkP8sOO+zgVl555Y6PHg4usWTAQ4U5hptmSGCuYiLFiYeoO2irW4XSioAwYp/mExDCYufEBIhQLAwweZlAEMU4Pv8bG7HMcAQq8AngN/tJl498DJ/kXXfdVd0Ln3nmGbXXSz/Tad9hsgjwQYIzFF4+IYtL+5t4nSjU0h58zdZbIox0xHcayUgYmx2WfN5jQkUoxwAyK++yqvIqKv7FWLz99tsq6yXKDT7Kb775ZuGi21RsfJWb9In0tChHBg8erJtwlUe93MZVEVnjo48+2nJ5JcJIpGTfCYAgjOar2nJLYwERAzlgwBSG7dw0iB5OYAoUQxiK+w4gnQMay6qAYzzllFPUY6bshwB/4EdNYBOC4qi2o8k6SoQR7SSapErypibL1t0OwoileoSIgYiB+jFAtk6Ohvvtt596d4hytOOO12k5NXmu0VgTRzMkcIy+4447NCWumKA3XVWJMBJJA2EpnfG1W8IximV8xw1o09iML0YMeMQA65Do5MSa3F5sTIkc9MILL3TseiIJFyZK+I+HBFIBc6RGFNEslAgjwngIo0+OkUbRuDfeeKPZ9sX3Igb6NQaMUcHLA6JC3hkCYhQpeGwjA4TM8eijjg4S5T3dDnL0EHau2QjkJcIIx4g7GAQS8MU1suNJfuB0m+P3gmEgfeQpWNNyb44PXFBGPZ96OpdehwSSFl9vd9BBB6n8keg2nMqA9HP1lNvOZ9Zaey138MEHe9dppPvEkZoNpNmEaSXCCKc4YMCAki1jupJWvmOKENqOqZX2xXcjBnxhADMfzH1Cm0BhZ0ngWGwFITCkWjAC6asvIctBn4HrINwvgY9DAfahEpNTA+s2unGUCCONY1Ax/PUF7Jo06LnnngueKN1Xm2M5EQPNYgAZ2plnnqlBOEi3wNxvdEH2VXe6PI7TI0eOVMPws846S+X5fb1flN+xm0axtNZaa3kX31kfsTC4/vrrVZTX6EmgjDBCFHvEX9Q3YJ9lMfB8lx3LixgoCgYQRxE5B+IIocKTBgIQgkBan5GhYRB+5JFHKgeG37CvbIlWR4grOEF0B8dLjp5QAFOGFxNEshEoI4wMIvllfStgIIqw+xEiBroZA0YAiS5D7mmyFpIDm3SfEM00t+cTD3BDGDffc889atoDscHVkDxOoer01X4iGxFxKFQ2UYnBqUqYRhmzMsLIgJIfuFG2sxaSKAuZCOGBLG91refjbxED3YIBXC4Jvw+B3GuvvTQcvxHPUH3EGJxwasjvjjvuOPXDLiJxhC7wweOO+J8bb7xxKJRozE1sQhuBMsLIi4QOIl5dq2ATwAZl3Lhx6vLUarnx/YiBImPA5ru1kdMXqUgJpnCphDcj5SweZtnn7PlGr9l1xvvcI6jC6aefrvaP55xzjiO7XlEBpdWBBxzoFl1s0SBNxMGE4/Rbb71Vd/mTEEbyBRMR1zegNicZka8J4bt9vspjIfjkuH21K5bTXgxwGltt1dXchRddqIEV8ARBOxsSIAhjx45VOR7uhSToKqL8EZqw4EILul123iXYkZokZeCiXpiEMKKAIam1b/jss880gxpyj6IAbLzPiEIM8KeffNrWvLtFwW1sx6QYEB21m3aaafXoSI5mFCac0EJupJSN/eNNN92k3CNpCEjnkDbvKQqzQiZKsjqGAHyn7777bg2FWE/5kxBGjtGSvKdk6F1PIfU8g8HlAw88UNqxijAYsPA+A2fQp1tuvUUNS9WJvR7ExGf6FQZs3sN8oCSBQO69995qKhcCEdRnhBfzHsJyEffxt7/9bWE80mgfH1KibrPNNsFSot57771q0mSBQmrhexLCiOcLMhHcA30Dht4SZdd3sU2Xh3Dchzw13QD8NI855hjlCjDC/fyLz9M/x+/9GANGoAwFHKVhQvCBlijebp111glGFKxOOEX8rU888URV0IwZM6Zptzkr09cV/JCkbN111/VVZFk5aKYRJ3zz32/K7lf6YxLCyENkUesJYM9IxBB2SKJ6ZydJpcaFvkfOYfIlY0rhE9AMEpF5jz32cAcfdLDmF8acogxiKMQydPSXP5j3Nvfh5vhwaoEows0NHz7cLb300t7nZBa/nOA4Wu6++xZzQAsAAEAASURBVO7uggsuKEwELNYkXCPOJr4BMR4mTV9+9WVpDKrVUZEw0jizvar2YrP3CSJJInLAJkazZfl471e/+lUQ7pi2oQVjsg8dOtQdf/zx6gGkbRaiiLyJ/kfovxjIEklOabvssotqr5EF+jJ8zs6zdL0oRYcNG6YMS1ru2M5RIdDEL37xC+9NAA9YxxDvsi+oSBhh8Ymb5tvokgGBWySMEraNRQCOMthQoYixndxXuygPeQaRUSCMhK4///zz3TvvvqP3fdfnq92xnPZggIWLVQN5ZyBWBEHAp5g4qSHnCmuSyD1FEXNhGYOBfAhx3nvvvefuu+++Pge4ImFkEGDnyTVswD372L1mrgw+xt4kIQ852PW2DYKI5f1KK60UjIOzfsIpI3CnPnw4Oz0yc704js/1jQFbW1xZI8j6mZOnnnqqww4RuVsIRsXqffnll5UQI+4qAiDiQkNt5m/WTq6tABp6tPJ9MWYVCSMVz/HTOTSJDeYsrTYm3RHKIj4jUS9oJH8zEdoJHFk4uvhO2pPuE/3kw4DccsstGjZqn3320TBSMcJ5GlPxO/PEAO5pk0020RwweLIQ5NWniZnVwxWGhbBmRQAsRkimRfQd3/QB43d8qIFqZVcljJNPMbla6TMwvGwfH0hDljFq1Cj3xBNP+Ciu5TLYlVZbbTUVQuOe5HtnTjfQJj2GtkQZRtCMwJ2BajaoZrr8+L27MMC6Y37OPtvsjo2UHDCY9+CEYXPJV49fl2j7+FgXAejz4MGDXU8AJTB5YeAaqxFF+l+VMPLj0kst7QillB6AWoXxTj1AeQzCpeIiheF3uvx63vf9jNWPsS1HF0wZYON9a6vT7QaP1IsJwVFHHaVCdzLDYe4TIWLAMGBzE2Ud37F//N3vfqfZBH2ecCibOcmRGo11EQAZIy6UiBVomy/ag7iA4NlffP5F1W7WJIzTTDuNW3udtb2lVbXOWQeRs5nA136r2tKcfkDQjZIEos3xmtBIBjZJ7e++rtanWlfKgFPkCEPAATTY2D/2JQPpq+74e3dhID33OF5i3sNpA86qUag2HymHEIFFSZsAY/LLX/5S85/TtjQO+LsVQCH63vvvORFwVSymJlah1CuvtLI3s4FsCzhOEgnk/fffz/7U1r+R4WDLedhhh2lkFEx6kHkwoUIC0YcwQN1eEh+hpMG/EzlshIiBShiYaqqpvBIL6mC+EaqrKDDPPPMESZ4F8dfUzpXpYu2jNMiZe+65lTiGQBSEBtU5nCPgc0dotb20DbMl5BzkqR0xYoQGHkWLHRLAAeYTGN1CIEk5iadCo4E2Q7Yxll0MDHDk9b1Z+y6vFUzRFnQciAx8KpxYY5jtvPLKK1XxV5NjpFNY5a+51polS3TfxAuTFWRrY5+oP/JFK8iu9910P6ebbjq1q8IGEfkjwXzTv9dbZr3PWdkQRORJ2267rcqUov91vRjsH8/1h82SUyuaeERcPok2nPGECRPc119Vlqf2SRiZYquuuqpbe+21g802bBrPOPMMpeLBKmmxYGQ5AwcO1DwVaJPRDOJr3YyMp5GmwBWgvUfeCQdJMnEL+GsEtJHy4rPdgwGfhKLIWMGcbq655vLKjGAZgyXIv/5d2W6zLsKILGOrrbZSRUSowSAsEn7URdGIVZsoEEKCbJjj/+abb+5IfBQSIIBm/4jLGLJPXCuxfwyZZS1kn2LZxcRAkTZbawsMCIQR2uOL/lAO9ozVnCzqIoxiKeBWXnll1RDB2oYAuKBzzz1X7YtClO+7TEQMaMxIfHTKKaeoLNLkjwxoI59022zws1d75s0331S3QjSSmBY1EpXYyojXzsSAzQlrvc0x+9vHtZ6QXD7qaaQMy0XlgwlI45C1g6wRSN/n77oIIzZUNAruKIT/Ig0BsOlDhtdo4pret/P/n4lJFBDi2xEsgsRHaNHM7ipUi+CqERxDGDlaR+i/GGAO+gQIRNGAPiJn9B0ikGg7eOFVgroIoyEf/2nywIYCBoWkNUQ2LootVb19RQ6CHSJx9UhEBPsPhJhojAcf5CTmVmljVG9743MRA52EAQzbfYusjMFgHdmaMpzURRjtYVzlMEAm0m5I+POf/6xucp1m5MxRmpBJaJLhIHH8T+cVzrLrreIwO5itlhffjxgoKgYgij09PV6bh2NFNU+fhggjrSKJz0477eRVQ5TtLUFdCbmE90knBliA5Ycowj1ih0hKWpM/Zvsa/44YiBjoGwOI8vBC82kFgjwVv+lKThQNE0aMnhH8o4wJCWiLCK5w3XXXdWxwBXY58glD4Pfff3+VP4KzEMfrkGMRy44YaDcGIIg4m0w55ZRem4KM0TInptdlw4SRVqE650htwtBQRzqoOfZ7V1xxRUd7fmAQTl5hEq/vsP0OGr0nfaw2/GWv1WaAvZu9Vns+3o8Y6AYMzDfffN7N0xDXGWFM46gpwkgBHBVDhB9PNw5CAXFEGYONYyceq60/cNq4Np1+xunqYkgQUuxDbZeyqz0frxEDEQPlGMACxIfJTrpU5IyVgvM2TRjJC0MUmgEDBpQWd7pCH9+NWGC7hykMPsv/+XdnB1UgbzehlCD0Rx99tJohmNzE+usDd/WUEcomtZ66i/oMOLHxKGob+2u7pplmGu+EETkjQTOy7pVNEUY4OYDgrgTPRLEQelFjjHmMpCWF4zKXuE6dIOAKQfK+++6r8sf99tvPsdEAofFoOMOGi+g9MTiuYaT3in0odrR5jUN57fGvWhjAqYKPTzDCaGIsK7spwmgvs7sS8XqjjTayW8GuNJwwQRiAE5ILLtKgEycxbSbeHNkYCVn/xz/+UZNyIbfNoz8ECCYBEkoh8n0X3RXTxjrEFXwT0QhLCE5BRHeOUDwMwICFIozZNTd5q93n3M/ievbZZ+tKS9hqfXCLhOTCAByDapLmGAfbatl5vZ9uLwOCreMaa6zhFlhgAY3HiMhg7NixFc0IfLWRnRKN3MiRIzVY8NZbb+2IO9kjtmL96SiJ4P3BBx9UxRixMNkwIhQTA8jkIYysnywha7bFxjFyTc/7ljhGa8ySSy7p9txzT0d4rlCQRgSdIKEUCe0xBsdyvVMhTSRnn312DTGGeQ8yVdJohgSr+5lnnnG//e1vS3Wb/yh1g/c07kO2J8+ymUOEtwfPpCi94YYbIlHMcwCaqIt56DvdiClfsnO8ZY6R/nGkJvoO4bEwambShQab2AceeKDKhOB4Qvpxh+6PlQ8ucS9kwaL1J8L5rbfeqlHOQ+EVAgknTnoFiOS9996rRvwY88PNdhOwEF6XfEOkjwC3hJ4KhdduwltR+uKbMNKvSuPvhTBSOO6Chx56qMr+OJJkKTDP+ATjdjDnIZkUOZvhIFdZeRX3/R9832dVbSmL/mHegw0k+T2w5bzzzjtLiifrf7pxreDcyoNAojHneEnaThKfD1pkkJvie1Okq+rI7xybOWkgz6V/KKAidBYGYByYq63M9XSPq5XljTBSGZwOhswoSRDo5wF0DJceOAC4HZRBu+22m2p5k28nRgoRJbot/Dza5KsOBh+ZyoYbbugI4EEkHZKvjxs3TsUHIfpkE8Xkj2xyW2yxRSkeJ3IY2hWibl94y5aDOQYaeCKw33333e7jjz+uyCVk34t/FwsDzDkjjL5blp3PXmSM1kgKZwEPGzbMDZh9gN0OfqVeFitmFgRwILoN3BXReb8zWa9pUfBGBKrAiBD2osjCrr32WjXzCZFXONsFDOohwphJseEgz/3wow87hihybCZ8/fHHH6/yU3KZo32udHTK9j3+XTwMsM6xnshj/LxyjKASjmKDDTbQNIwsqLzzlLCYOS7BsRI/kg+5sdlpOg3Su5gRSLhyTJbWW289lefedttt7oMPPvDaNauXOgEm4wMPPKBEEo8nctDgK+/bC8FnJ7B7hZAjgmAumIKOvvGxvvmsM5YVFgMQxFBEMTsfvBNGUANxhLtByI05CNFyfEO2I9nyyY971llnqfkLR0GUM3BZgL1rBCD7bhH/TrcVAfTgwYPdoEGDSgRyzJgxDePZ8FBvfzmCXnnlle4+yey48cYbK2eODLRIgFjlphtvcudfcL6mf8imAm20z0XqW2zL/9auT1ykzXSs3CCEkcmHNhOFTDsBLoGjILkdCIDLERuOh5SMlZDRzrY2UzfG4LgXrrjiiu6qq67SbIskEg/pzcKODTdmmw4h6Lbeams38ywzt/WITbuefPJJTY8BF502OWoGt/Gd4mEA5uCbb7/x2jDoALQqSw+CEEY6QNgwjjAhuMVGMcPx+qGHHtL8zCgTkJctv/zyGsSh0bKK+DzRwnHNXGWVVVSjTGIxCGQoYHzZ/J5//nn190aeS3qH1Vdf3XuU5b76wCbw0ksvqewVbToyxcgV9oW1zvydYA8fffiR1/FFxIY7bi6EEbSPHz9evWGKMAS2kJHFXX311erpgZcHBJKMf90AJCRHlvrzn/9cuWK8Z+CSQ3lygFOAoyqbDdzammuuqfaPRA6iPSYP4ll73ieu33nnHXf99dfrZkAK3mh+4xO7xSsLcyssXnwCUa9gLIxG2DwNwjHScI6waX9mn51ppSw4DOSPI0aMUENmiCNEEq+T7K7RSj3tehe3KTg3iOTo0aNVQWOpVkO0ySYSmw6KDpQ0yHMx+MdzJwROkSMiU4X4Y/zOiYB6rC2RYwwx0u0vE4sI3+lO8L+uJPILQhjZueEgKoUMbxd6bdFY/SweuAxMi7AP5CiIp4nvhDtWX95X5I/0CSNxoqAjgyS/hSX+qdWeZggL+OU9NkOCU9xzzz0a6R0jcfNI4vfsONRsh2SnFF6z9AgEkDG7/LLL3egbR5eljk23uVod6WdKhcYvHYOBt/7+lvdgJ4QB5JOFIISRxcFRuiiQXRAsHFs8HAUhjOmjIPLHbsnRwtGaaEQcc/HBxoTl/fff16ExHGTHqdp9w6Nds++l/3788cdV9sdxHgUN9RNPrxFIE0WIOjaceK0gRzTzGyuvnjbZs/HaeRhgfF96+SXv4pKZZpqpYrqEIIQRQ2smbyeAEQFkF5iicBTE1GirLbdyP5vnZyUC2gl9qdZG7A0xvMe8h/S35513nrpQ+j6WZOtHAfeXv/xFvU7gHMFrI4nBWAyYCN19191u5Dkj1Zc7pMbd2s+ciITWsFGMK/JqlGyVom230kJOiJWYoCCEkd0dD4NOAlsM+F4TaQYuElkZxurIH42AdlKfsm1F0Lz++uu7JRYX+aMcReG+4JQx4A7ZP+YC6WTxZ0eeu9lmm/Upf0QcY+HAbrv9NvfJx59ku+P9bxRGeBjBjWKSFKE4GGAT981soZHGYYJxrwiyO3oDOZomYjqCy0RhP0IEklofa7sIZRMJ4JCI5jOR4ArecNTOgmTn1epFXpeIuU0i6RWSgQMHlsaqHrwYfpq5CnFOJExdcvbZZydypJ8EFUKUEpEjJpJdMRGD/EQmr7bN2tVMnfW8IyHzEuFoE5GNJkK4dX7U8176GeaKiJEm6ZOvG4ydjR9lSlzSRBZ1aezSbWn2O2MjYjBfTfZWznPPPpeIWMhrX5mLosDTNqbxKrjrBW+tl4IkgGzyy1/+0msHpJVey7NFVu2arU/kEMkuu+ySSFi1RBRKPtGVe1m2uGwiCGeWSLixRFLiJqKwKeG5Em6yeGnmb8rlPdGeJ0OGDElEq5zIkVvxAKH8/e9/n0hU80S8e0pt4XlrTzN11npHjHsTUVAlYgOpmx/jKxGFImHMfWbWrpB5IkGxy+ZErXGt5zcJ0JKIF5dWbOuBP+RdV4WH5KfmAME+kVk6GWQRlmRMfEf+yFEQI3HMUDgOksqR3zoN0m1mDiB/RHO94IILqv0jChqOvIQfSz/rq58T553aPxIRCVMi/NkXWmghh2E67obmxkf9PJ9uR/q7ldVM2zg+oZgiR/qWW2zp5phzDi2GutN1NFN2fMcvBoRo6TzxHXeB7APYMALZMfdKGJmoGN0WXb7YyIKyhckVTw8itWA7RyAFfLBxLwSszCyC9ceC/pduK7ZcECiIJASKgMMWOs6es2u2O9b37P16/mYjRRkEocJLikVgYOXa1e63emUxID+GKEIckb0a0EezifRdr9URr41hAIJItHWfijfGWUQ1VbMOeCWMdBdDXyY4FXfTxDKiQN9IlkSOG1zhdt99d3XFg/Pq5P5a25kse++1t1t11VXVgBpPIYgXvxsOGpvWfT+N8odPaGCMMH4nO+MKK6xQ0UyDftondHti+fVhAPM/LF18AnMZ+9opp5yyYrFeCSO7/bvvvqtaPVtoFWvtgptoyW688UbV6qLpHbrtULfIoEUKHYqrFtrLiJ5ICDjaEtuS6OGXXXaZauntKFP2bK1CC/Ibk3+xxRZz22+/vYoLzOC8UvMiUayElfbee+GFF9zrEqnLJ3BCIUNntdQdXgkjrC5mDlnj21Y6xCLkuEqoLYgukF2Y7STC7GZEhsZfGPkjqQDmnXfeVrpcmHeZNGQvxJ8c7hgCiZwVj6bsGBSm0ZmGMBZDhw5VufDcc89d3TQj8178sxgYQNbNnOPqE3A2wK4XAgn9yM5nr4QRggihwHXLJ7A4sSdEMYBw3o7qPutopSz6jfEpaR0Inf/rX/9aDam7wb2QCYOQGnkcwSGIYINPNP1lI8xOqFbw6PNd2kwwX7xu8GSK0JkYIK4B9qy+mR82yZ/+9KdVkeKdMKJ88QlQ9J6eHjUKRi6EWxh+v+OeGee++tovAa6n3dUIgR3B2N1wh8QFznyVKzmp11NXkZ6hf8gfDznkEJWpQhwRJfge71b7DCdA+DWUY3j5NIp7xrfaGLfatvh+4xjAN/6VV15p/MU+3phjjjncrLPMWpXgeiWMyN1wA/MJWKfjzwh3AoXfe++93Vprr+Uuu/gyd8111zg8VUJDo7sV4ZEg4Ji9wLXs9uvd3EILL9SR6RUMt0YsEGkQGJfI3chWxci4N7+OxMrjmUZxZeW3emWeIDMSe1O30UYbuVlmmaWpIo0wtrMvTTW8C1/i+IxJl+9gNIwt5mnTTT+dWkhXygvlNRkWhJFjrk/AjxGXPBYkZt78veACC7oTTjzBXX755Rpi/8c//rHPKr2UBYFA3oopyhZbbqHZ/RAzpM1RvFTUpkLEU8StvfbaShhPO+00Pa5W8jkN3TxMa+aaay4N1HvNNddohshmiWLotsbyG8MAOb+RbfsG6AXKRTXLqpIszyvHiFmHb8JI44mwC6S5EQglRyYoP3Z3KAbEM8W7k7mPQUGrRs5tknRxxCO9AmHB2Lk6HeDmSVeLoubII49UGbP1Kz1eIfqJHJFQccgREbNgjhOhOzAAl0g8Ud8nULAzzzzzuKWWWqomorwSRjhG34oXJjvcCSAWZqX4fLboUHBAbAZLciiiOeOhgmKgaMBAo7keO3asRtbedddd9UiKDLWTgYAhGIMzicmzYkQxZJ/AGeO9xx57qELIcvjYnMijDSH7F8t2usHee++93hktcEukqVqKF57xuirxePFpnU4DOZ7V4gRYDCwUjlP777+/Kj3E31aDs2J3Z4uFsooA4AijacKbEWUGAlkzwkcRGl2hDWyCxHaUYBCqbGJDDE2QKB9t4p577lmKus49xrho41wBZfFWnRhgLO8dc6/jKO0bOH1yyuAkWgu8EkZipfnmGHHXMpetagvP7iOARylA3mUMk1EMsOv4toGqhdB6fmPgMUOAqEAgsbPbYP0N3Jw9c+rr/G59qqe8PJ+BINLmiy66SNMLpI86odoNLnrEMgGTLTT9iE8Y6wjdiQFk8dffcH2QfEXYteL22hd4JYx9VdbM72mOsV5iwdEbOR5yBOSPKGkkgkzhFB/YP3K0xgeblJ877rCjW2/IelWt8ZvBX6vvpIndww8/rDEc0RRKFCXFJ2PCMwbp73avlSvmNmiZyc2z1JJLuamnmVqLS7er3nnRSjviu/lhgKjv999/v/cKYbCQRf9o+h/1WbZXwhhigqY5xj57k3qAtsA2k0saeRTRuSGQ+Fz6Xrypapv6CqdNYFyCNtx1913aZqzya4kQmqqoyZcgghh2Yz+KMz8AfkOMtzWRow6G2RjLYxOKkidC92MAmTU2sr5NdMAcmywxACb7bu1jNM96JYwU6BtaXXy8jxbqN7/5jVtttdVUe4122BKy11N+XoQUrT6Z7zASx7WQcFgD5xrYNjc22gPBNldA3xYHleYKR2RCuuFpQ3g3xq4S1DNuld6L94qLAcRwRK567LHHgjSStBoLLLBAXRt64QmjL7s/OE9c2pBBYnSNjAz5Yzr2X5DRaKJQzHvItEe+FDTuG264YSluXPoI2UTRdb0CBwtxhiByrCHvSh5AWgGMxreXYA+MU1E45jz6HutwjnnPqS7EBoyCVgIjlzJW9oVvr4QRIuZ7Jyf3h0+2mlSJEBqI5KXie03eE0KImTY9D8LT16DwO/1GpsfRFQKJrSAeJ41m2qunLnsGHCDvBCeIHjBQZzxtTENwzpSNTSrhwDg2ozTrdBMmw2e81o8B5O0oS8lHHwJQ2CFf7EsbbXV7JYwcg+qt2BrQ15U4fb4zg1En1u+Y9yBzQHaGDeTrEtooxOLvq4+1fodAokAiaRVaWZQQvrkpySTi3nrzLa0H+Q4KoUrxEY1A1mpvI7+hWJMcI2q2xLEZD6cI/RMDN9xwg5p/QSBDgKRb0XVTb9leCSOGtr53e9hq3yZAhhwWOnIHZFpm3gN3hq8zYITArvaeXfMkouZeiJE48kfMVgjq0Cp89tlnKkckdBqyHcxx0hCqj9gjIkckCjpyxGh+k8Z6//qOveKIESNKYQV99Z51y/xlrrG+G5ljXgkjbm6NVF4PAiCMPo/S2TpBHO5scI5LLLGEEokzzzxTOTTqNeRWI47Z8kL9Tf2IKvDqOeGEE/R4LdkYNYKMpVdopG440RdffFFtKeFIibwOt2/9baSsep+lbEQZ7N5E0V5mmWW8nzDqbUt8rr0YYN0xH3B4OP3001Vs5LtFtqlj3QAD1Ah4JYwcT80Yu5FG1HoW4kQyqhDAwKQBdf6mm26qgVkxT8GzA0JU6ViZfi/P77SZ4wZJpPAAIZAD+UvwG5esZ302BTniqxNedVdedaWa4KRDOvlSdFVqBJsPExTFCsqvkpvnRBvI7FhUKiPe6x4MMN7MN0LXcYwONfcIKLLJJps0HH7OK2GEG2AB+AQWMpG7ufrmRqu1k6PdYYcdpjI9FBHI3Yw4F2EBWxs48uNeiPE6xEaNoGs4x2N+QwSaK668wj3z9DOq4KmGA1/3aSsRwLEn5ThDHLy0HNr64qu+WE7nYODxxx93p5xySrDkecwzTicoWhsFr4QRjsU3YYQ7gjCyo+RFGEEipiImfwS5BKcgBFKRzHsgKhwXSFd77rnnqosecjvkj+yURnQ4No8ZM0afIUZk2o2v0QnTyPMYZcPNwiUS5onxs+NNI+XEZ7sPAyg6jzrqKDXRCdU7AszgbtuMqMkrYYQo+o6FB0HE8wICqTEZQ2GxSrmSGF6PqwsvtLC76eab1MQHk4KQcs8qTal5G4KDqc1xxx2n6RUIxcXxGp9sbMM4svAdMIJas8AWfmQiYn6z4447qolE+ohvxLqF4uOrHY4BTi7HHHOMztOQXSEHU7NpLbwSRlhXjkoQMB9yORYRBJEo3ZRXLdVhSORa2QN+OkAj4eA9w3GUIywGqXlBPZwW+EJZheE6xJuI1nDbuFmlx6OesprpF+Y3OOhDEEkrAMcYCWEzmOzed5iHOFdgHhdKrgj2EIdxWmmWZngljJjqYIvGkSm9EFsdZjhGtKaN5u9otd7s+/SPBO1HHHGEhi7CQJwBzsszJNueSn8bIULbB4EMRQSzdYMXzIjw1Bk4cKD+TPzMCBEDhgFoAt5URJXKmoXZMz6uMGYQRRiDZsErYWRRzjrrrN5tGVF8YMdHzMV2A4QGAokXCtb0ZDDkqIoLHTaBgBGnbFvzIlLUm0ddnBDI0UwkIwjisssuW5IjggP+RYgYAAMQRZSYw4YN01NMeo34nqso+4jIxAmGstN11TsaXgnjZN+ZTAkjDfIFdAplwWuvvqbapWY66astlJOuH7tNgs1CJDHtgUDiwocGPfus3mjDf7TX58Sz8nBNRCmFYgWtn5nfFKXfzaKaTc/62GwZ8b1yDHz7zbdu9I2j1f4W0U56DZU/2fpfHJ1RPhIsopV575UwwiAQ6otFw1HOF8CJvfjSi7lrpvtqvyEe8YFmL1xzLXfe+ecpkSTYZjcCYhK09cgR2RQgiGnzm07vM+lgu3Xs2jE2MAnE7zxq2FGaBjUkUaR/ROdmXrLB2fpspt9+CaO0ACNv8ilgQuILQC6KDohtkeLypQeZ7/PON69GxeFoiXnPPffco7JR8JB+1hde8iwH4odAG59mTIJwo+z0PqXxx+Z79913q9UBwTtaWVTpcvvzdxSBKCqxlJgwYULw+dLT06N5z6FBQCvz0zthhIMghwkyN59AEvtXX321UISxUv8QI7BrIefA7pGIIY888kgu5j2hFjMTDZkNXOJiiy3WVeHAsHrARxylAJwNR71QeKw0X7r1HvENUE6SZsSYpJB4xe4YsQ5upj7AO2HEZg3KDbX2iQh2nKefftpbx30gr1YZEJPNN9/cDZbo4XjPQCAxajX5Y613i/IbdqlkVNt9993V/AargJAmFnn2m7mJXefFF1/sLr3sUvf3N/7eUWOTJ64arQs7xbPOOsuRlM6nSK1SO4zOYB7Gxu1Lv+GdMKIqR3sMBcfjwgfQeRYkkWU23nhjh0V7JwDHT7T0hDdbeeWVlSshYAPmR0UG5DOENsNAlg+aZ4NukCfCFSLmYLPC55wjH5A9evnc2A1/3X7FfvaUk09xo/48KrdTEgmuCErSV0rURnDvnTBSOQ1EFohhtk/AnY2gDhBGm7TZyeyzPl9lsVlgygKxIaYiBq6ENytS9kIIHpsP3D7EEMd7zJF8BwXxhdNmysFkhFQN5MHGRTIbXq6ZMuM7vRgAt4iOODojOsrrZIRlCHENOJn5hCCEcaAY+ELFfRNGdnrMYTo1XBVHU1h+wpuR2wJDV8QDeU2iWhOHtqE0ItgDkY6b9RioVUe7foPgjx833l3whws0kgscOxsBH9tg29W2bqgXkcR5552nJyI0+nkxKzAcBE5BC+0bghBGOEYWP1o+X2DIJs0omtEiaacb6SMLkbZvv932Gr2a6OHYQCJDRRGQN0AAl11mWTd0u6Ea/eYnP/lJ3k0IVh8EkUV73XXXaYg1sjACzKVIEFtHO5H1OcWddfZZ7q477yqJJPLCLc4VHKHZ1H1DEMLITgxh5MiLK1+zUAnBTG5ytBBYttLvzdaVx3tG3KkLdzkizhx55JFKkNCKIn+07IWh2pMmCgstuJDbYsstdMeFy0e22C2A0J9NFLxytEuLLTpt3tiYpOeP3WvXlajbKK4wx2HzAafWvjzwi7sfawfRTwgIthLI5cFia4UwVuow7oFkriNyDAS4k4EJBMfG0RWjaYg93jMkGzfFVZqQ+egrdWKEj/kNx2Y2sG4CzESwQ8SOFPMbc9PMo495EIQ8+lGrDuICsIGPHDlS86C3QwxEoJqjjz5aA5bUamsrvwUjjDQetxyCUfoEhLwIzl977TXN5eCz7DzLst3V6oRAEoQB90J2YY7YcMaVNKbNLkBsTNGOI5fhGIL5DWWpT/N3rCWdeWWBEkWIyOvgDpvXvAGvoDy5bt+bZjV8MUc++vAj98BDD7hR141SxSEcOfVbG7LzuVpZrd7HDI4c8SgxQ0IwwsgkYZGPHj3ae2BUvGCQX5LkptsA+SxykzXXXLO0yBFoGzFsZgJi2zVo0CBHjEbyNmNCBChRlMnd6YAyZdSoURqkAHMR47bz7hcR7FEI5AVsBshRfQKnsDRxxybxgfsfcFddfZVy4mYAn56H6e8+25ItCxtpXG+32nKrfIJWywIJAuKtkgjXSOwp7x8JYJCIRX1vu78N0vy2FyrBcBPxIErEdCaRnVJxKJOwblzKJE8GzjUwOew3hyVi5qT9kYWU8OkGkGNyImZPiXC/idjN1o2XEPORMvfbb79EOPzcUCtJpLz3WSw+ErGUSEQZmIiBdiJWFDr3svOOv6t9QuBXFCzJsccem8hRPjh+pf29EKomibmWSBJ174MnrU5AlKRcTGTX7JqFXm0cxN4uufTSSxOJYpNIgI4+8SkHnETkiImkJk3EkDkR7WGp6G4gjGwYkucmkWRgiUQL7xMfzJfQH4n0nkh6iRKeQ38RkVLy29/+1nu/5BSWiOw5EdlzwsZaDW/ViGKWgFZ7v5H7woknkgYhF6LIuEnbeiHkII6+YbQSMampKpKb/U3kZbqzhWx/UcqGoIkMLZH8z4nYGyai8U9EXFGGUyayeB0lu+66ayKpDBI5BhWl+S21I83hSlZDXSRiJztJ/5udRz7eE9/4RI7xLfWzkZfZHEQrWzb+PvrBnMrOKx/lNlsGG47EcExEiZsbAyRtdcFkjBQOLLzIwqpx9R1UAlnIE088oZpH0oim5SK9NXff/wTnwN0SrxSCamAmQZgsoiGTZ2XAgAEawAPZK7lqugWEYGiUdNJskvQrrZQqQh+Rp2NRwPjkBSghsSP0De3QMlfrA+ELRTzhDjzwQFUUCjda7dEw9xvZqRp99uuvvk6OP/547zubsewS7SWRxPGNNqtrnhdFQwL3IMbhZX3qhiMzHUKOKMbDiRj1JyJ89z6PZEW1XObSSy2t3GKasy0bjAB/SPBmPRn4aH8RyxBHg2T48OE6/gHQV7PIEpWt+ZSHH8XANpHdtOUJmB5AI4wcH5FjmhwNmWOEzscAREbsEXXxSxCLkryLcbexT8+Hdn2XXDeJBDfJHeHiCKBKuXb1O2S9YjWRiLtsgo6iHSB964XQlcPR7LXXXkoYfU3q9AJBOCuBAbQb3cIphR6TopWf5rawNvjd736XSBCLkrzLxtuuMnO9brSNlkc7JCRbcssttyQoQvIGCWGXLLXUUm3FQaM4q/U8+OR3cQpJJDdMW3BqYyjt6AW7EfLKBJKc094GMrtAJHpN8swzz2gX0ossZJ9i2R4xIBZECNjRvg8ePLjM/MbGOnuV2ettPjVSlhjGJxJrMxk7dqxHBDRWlARTSeCsGml3kZ/l5CfeX6o0zIqFGsNM608Lnnqh9aL6LkGUBKpNlRq9DyYLRgxrk3322SdB5hahQzAw0ZwSMQj2iJtuumkiYaS8z49W5pwRY8pgjmEJIWHjEjEqbyuSJTpTIiHhCoWrZvEsDggqFhAvOTW/aytipXLpRy/k0RBkfxiMon6XWr1+mLyUicBW3MHy6E6swwMGUMxhTCwuXokkFCvJEX3PDx/lzTnnnMkhhxyihvImx27XyYSjO2vJR7/aXQaOCwcffHCCzLQoYjDBSS94mON1FSHxGZPlllvO+4Cmd3WJWJM88MADdbUnPtQ+DCAjQ8COnMw2NhvH7FVmqfc5U2+ZGMoPHTpUDeVNlmgLuF2E8YsvvkgOPfTQEt7q7UuRnuPojFecxHFsm5Kl2uwXPPVCtQdC3JdQRYkETPA60bMLCRcxjKGBdk3eELjrhjLx4rn66qsT8QVPkNXJDNRPdgzTf9szeV7xrKKN4oOdSMCEwqCe+Ux7MF8CR3nixFdd4FYCpqjVQbu570oDK/3shUo/hrqHN8aQIUO8Dmh6EfEdWZAEYiiZ8ITqSyy3fgxIODBdCNtuu20iUX4mWdTZMUz/LbPU63ypVR5zBxMc3E3FgL4k8zIusf4eh3sS75/555+/0KKHSjjGowazvTPPPLNssykSbhm1XqpID3IEdojrr78+kSjW3iZ7ehHxnS7hUyyZytqq9s8RrYWtCg2jREPSAAASiq7qmGfHMP13pUXm+554TiUS9FQVeOOeGVciiEVDLERE4kyqPN3mum9chCgPkzpJZJdIxO/SKY6+FBGk/72Qd+Mk2KweBaT2qgvFx28I9C+88MJIHPMe4In1obmF81p++eXLzG98jK3PMjjSS+rNRBJlFU7elR06NhpsPH2Lo3ziM1sWcmQJHKwKlmx/ivi3tL8X2tE4zDPQ9EkLgn4kvqEajBZ1d2oH7kPUmcYvBv0Sh1NldPVEAwo9B6qVz9EO8xsMij/88MMQaPFeJiIJyeIYdM1Uw1ej98V3XwNAcGIwxZV3hAQoUPrZCwHK7rNIBvjwww9POMJIK4J+CKUkCZFK/sTpRdxnQ+MDdWMAgiiBPZJddtklwY0v9Lg2Wz4EEesFOC/iDhp0wrwgrmbRPV4wwUE5BAfeiXbFvVSR2dUmwPXrF7/4RS4LCFeja6+9VnvaCQugTUPSULVpPJocEaWAbXYmJ2yWgIV4z+SIjz76qAbfaKjDBXhY0l54lc/7xDGiq6233jqRKEglu8QCoKzhJghOeqHhNz29YIoYn66C0qOqhHa++eZT4mgmAp660e+KSRNE3PiwRcM+1TwxjCDatdaY5PUbR3oioaO4wA4QoB/pvhR9IIkObjEH8sJbpXqySh/EVcQABbeYYxl0Em6tzVylz72Qvpn3d8JKMdgYfEprgn/QjBLslWNfhOYx8NmnnyWSnlR9hjG/yY6dEcVK1+yzIf9GSUG4/nPOOadjhP/VRgXfbALihsRXPWWzVlFYEfJv//3310AaaYJYrf2dcl9w0AvtbrAEHg3iESO9qziJ8GYgLHynCNzbPT7p+uFaCCNHWoFa5jfVcJ/nfY71xAIlXmcnCf/T+E5/J3UC8tE8cZiuCxtPRBGkzMBfXHJLJ5KvO93Ervgufe6FIvTmlptvyXWhYVeFETiuaUCnsv15jt3rr72enHLKKQkiiXYuUJm1NYkDNrLbbbed2szlmZwq5Fhg4kZEn7767uP39FF58ikm1yg+ksddU0o89thj6jhhEXC+/aazxBH1jFEvVQSTBQAQzaKDRU8PjI+BrlYGi3u99dZLJMF9gpY8QmUM4OAv+ZoTMjPmJfKoNma17hPhm6x2KNlMjmg96vSNj8gzWFfU6r+P3xhfMi7CGa6+xupqOYLIpD+drgSP4XO+UEk9IETKbb/99o6c0RKTD2Jdz2stPSNKGCdxIjU5uxj4um222cbJMbulMrvpZeG23JgxY5wY57r77rvPiRwpl3FpFIeymN2SSy7pGMN11lnHkZsbYA7JJqvf7ap/dNh/wjS422+/XXP8+G46eBGlmSNnsyQYc3IacCI7dBIkWP+eZeZZnHCNvqvtjPJsVy3CFbMPPCUEc7l+4DYkkbcGu+107qLVcaT/BEKV5OYaXDgvDr6ZMcdekrBVyLvseGf975ZxRNyDoqMZ/PT1jmwoGuUI8yU8lVCilKw2xGOPo7JBt+DT+lPtKjjrhWoPtOs+rLsJ9lmU9pHWBpkc6XLJp0sEII6P/QmY9N98+03y6quvJiNHjlQDaDs2F5EwEtAWmRt5szvRiLiRuYWIKUQcU6LcMNa1gHnRXwii4WEiWdQjh90rxBUNIiHuCTwL0TLCWO2aJmytfqcOzE+w3CfYRbsS8uQ9EG+99VZy4UUXqsF9iEXY6rjY+0R7Ro54+eWXayoEw1O3LV7rTzqGqc1/w0Wr14UXXjjXXNg2VkW/Cl57oYgNhSAdd9xxSqSklTWJI7/7+KQnHt8x6yEDIYLvLNjEzd7vtL+xIyXq+brrrqu4Ni7RBz59l0FyrNNPP71kSdBpuG6mvUSIQhkCLtPzs1XcUtZOO+3UleY2zeA5/Y7gthfSN4v0/eOPP1aL+moeFT4nimCi6sTDPOWoo45SuVuag4Q4diKBhCMnLiYc8WabbZbg20r/i/iBUONqtscee+gG1Z+sB4i7uOqqq5YRRea8j3HCE4j4ASV5YpEWfpvbIvjthTa3o2b1BAsluKnZzRkxTF+lF14mi5VZqTx2bUKxs0BxfXr33XdrtruIP0IQiWyODBX3OEQVvhZaJZy1em+GGWZQwo3MOb0hFRG3vtuE/eVJJ52k4cVsXtq1VbzyPh40ZsPru+2dXp7gpxeK3BF2NCKKYG9oxzybIHaVXgQnjNRh9bFgCbpJrEcITVYb2k58VuJi8U4gDw7ePvg0hziatToG4NbKwMNihRVWUPxi2FypT+3EcR51Y0iN6CA972z+GZ6avbKOhg0b1vVKq2bHSfDq1MiLAvijiCCLwslAOjHHcJKlTe25uCeTpNRcX81Pl1kqPPWFenjG6sP+a5FFFnGS09qJP65bYvEl3OwDZnfin+skwkzqzfy+ghvhDJ1oat3LL73snn/heSdRk9UeUY5mpYak+1G62eYv4GyeeeZxcrx3EqVFv7e5SW2pXtLJOkkF7MTtrlR/em7a/Cv92OAXiYPqJJeN2n42+Gq/eFxw3UtdBNGFJYzpkRDO0R1xxBHuxhtv1MVvk6UIzRcu0klgTjdokUFuhRVXUANZDI1Fw+1Ey+uEC0p3pfQ93XbrT+nH1Beeq/Y7BsDCFTrxTnDjxo1zTz31lJOAA2q4LrJEvZ8qqoy4p++38zuG9WIJ4MSVz4m21AlX287mtK1uxhmiJUo/JzJ27+2Aydhtt93cqaee6sRcx3v53VCgrLPOIowgHa5H8hArcYQg0IU0cWnXwFg7mHhMOBb2gNkHuAUWXMANGjRICaUkAlIvgx9M+QP3wyl/qN/hOusB+ggnaNwgHKHYWrrX33jdvfD8C04MstVrSMxunCgonEQPKgRe+uobmwYct0RpceKPqx4Y6RPBxCnaVzEd/7ttfHh+7bDDDk4CdQTpkyiy1LNs9dVXD1J+NxQqc65zCKMRP5oscj132GGHuVtvvVUJQJEGg/ZZW61d3MPlSpQdTgyT3ayzzOpmnGlGJ3Eo9SNaYYdLpH4m+666YPGdcsTn14niQTnCTz/9VLkISZ/p4J7Fxs2JDM6xQXQasCHAGeKGKaH6nQR+KHUhjb+JU7T0Wzd/gUNkXovs2uGu6hvA5YYbbqgunj+e4ccimK9+CvFddyeVJ3j6TnsEYU1giUFlwfBBDiUpGB27H5MImUyRgLYaWJshbnzSwHPI1Thm8x1uE4LI1foL94fPsi0UKy9djn23enmmyCBeTcoViWZcOWn6S5ut/XYtch98t42TwGWXXebEprQ01r7rEBMdJ7mydXNGu/CdXhWD72q6pzyZlB0BcsQqsxtEY3niiSeWJW6XUVFNXruusqhL2uv09zzaY/XlUVczdaANJ/Q9GvJui37T6gIieZh5ejWD23reWWmllRLSiUSojQHBZS/UfqzYv2LvRdBMcrpIb9r+MeLU6rWZvlSrs5myfL5DgA4MlclXko70zEYXIUmIzE2UcZ84z5ZFOD/sVyP0jQHBXS/0/WixnyBNgYQPa0tUHsFg0And6eUvvvjiyfDhwzUbXySEk64j7GA32GCDko1uiPFmw8SgH/fPCH1joJcqMhJdABhZEypr6NChCYEGQkywWGbtTYAFaDiaddZZk4MOOigR06FSEOBIGMsXGqIg/JUtq6LhzveVscBbK+K/HP/V/hL890K1BzrxPuHCTjvttERMY0qLVHoZv+eAAwgjftei+VQO3sKBsSDt04lzKkSb8VUntUboTZwx2XnnnRPiDkSoDwNGF7uCY0x3Gbnj3XffnUg05wT3MiOMTJI0V2P347X1jQPFitghJqJZLYtlGbmU9Mzs/Y6LJkFJCOQQeu7BIDz44INacRyLScei0h0Zk16o9GM33CMAxbAjh5WC3kpvg0/E/laHmBdpcixCxL322msxWksfCwdtvHidJATaDT1XxAwqOfbYY5OvvpR8RqLnioSxj8GZ+HMvVWR0uhi+/urrRAzBVcBNZsDQk7G/lM+iEwP1RPL0aDY+scPr4lnkp2sklDrmmGNKMUZDzxVOTAS6BaIoo/4xlHHphfpf6dwnyWdxySWXaNQWi+8ovY+EskEcwCES4XujjTZKbrjhhn6VPa6V2Y9Mkdw0eRyfmdcSKCK54447Wmlyv313Ilnsbo7RRpcdE66GnCaEXCKnDFxPJI6NbQ7i9632cCz0NMRjWhob5d+Je4i1RF4bMpuXBFuZxIi+vFXxr2oY6FeEMY0E7B4RSEuUkUTcC8sUNJFQVieUbCTiUpY8/PDDvTEoo312elqVfxfcsBETV5EjLcQqr7klASJU3lveoPhXvRiAMBY+HiONDAVEqCE818033exuuvkmDcwgnE+o6rqiXPy6559/frfffvu5LbbYQmNPyoTTvonGvyv66KMT+O9fe+21TnK2uKefftoxr7L4Mbz5qM/K6OnpcRdccIFbY4017Fa8NogBGafeiVwvJe3G5zgCfv7Pz3Vn54hNfpfQBrcyTrlxDz7rkvlSMneaccYZ1Q4P2S0Qj9L/Wx0ffPCBimtM82x4y159jg1lYUMqRFE51Tge/xuPRr8JLvs3xwgC0kAkGyKFjxkzxongWrlJ8e0NFu0kXXcnfLeNlLbKZNOoQHJM1FiKSy+9tHKPndCPUG0kCtLzzz/vJA+0E8WUhsRL4yxbLzj0BWIo7sRg3InWW+OBUnatun3V243lCN56WUYoajd2sJE+pScSIaBk13eSNlUJJKkBXnzxxcLFfmykf6GeZQrNPffcbvPNN3eStMwJxx2qqkKXKzazTrLuaRDY8ePH576ZSg4id8YZZzhCutlynri8C423IjYOutivZYzZQbEJZff5W+wg3YsvvegefeRR98hjj+gVIlkpOCzozJZhZXXzVZQyGldSEm25Pffc00nispLsceIU69ruEyn9zjvvVLnefffdp4GF8+4sEdCJSyrJs8rmX7fjPhSeBW+RMFZDrhG49OQimjZHJdIIPProo6W8Khyh4DItmGy1MvvDfaKSDxkyRJNZSWQdR3DUbgQUd2yQYhurOVpE1lrqJnPG5k/pZqAvpMtAwbP22msHqqH/FQtdjBxjnePORJ+ILn2DNAMcn8hBw9GJD/k63nnnHY3UDRFtByBrIkshhLpdkc3B01xzzaUEktQFcDKW3CqLx3bgqJU6kTk/++yz7qabblIxix2b03MjW34oIskmJClxndhIOsY9gh8MyFhGwtgIKm2CpxcBZhgcqzlSkbqARQNHiRKHxFQkrIJAQSj53RexwmyGIyyJt0RD7MTd0UmwXpXxcRW/Zc3t8e677zbSRa/PkrYB+SMpDDhek+OF3DclQLLdaxhRulXULxLLUBNUIUdEMUf2RU4K6blQre02b6r93sx9CTzrxD9dRRfgOYI/DEAXI8foD59lJX3z32/cv/79L1XiQJzgLuEm+ZDmlIUGsWRxQVQ5mtlRnGGB6HHlQ+IouECIIAuCVK0cUUmsRdpRjlM9PT36ty0SNOwjR450J510kibMKmtcG/6gfWSmI+cIR2xSzVqumzY0p88qIWaMjaQCcE8++aSTQMhOIjYpQeTliUunz3J4wDdhJCXvoYceqnnWxXC8rjbEh+rHgIytrDoBGbh+r5WuH22tPQmqOeZCuCCEXMkJDWGE82RI+EAYjTgy+SGKU08ztZti8imUoBgBrNQa6qAMCO/ZZ5+tOYTJLAhMHHL93o5hh7AvtthiDkXN8ssv75ZYYglHlkSIfxasH9n7If9mbMi8SPpSyU2jV7j/bCKzkG2oVTYiCcxyyCYIgWwHjmq1rxt+kzUSCWM3DKT1IUvoGF6IrnGOyEUnDrm+kn3eygl9pQ0QezhfzEvQqkqiJrfUUkspBwwnyScvAEcQQ4k2rkq1+++/302YMEFT1RoXb22h7e3CG5uHuLE6ieWouLN2pMfU2hmvzWNA8BkJY/Poy+9NFkArkx9udMSIEfrhWG9l2cLKryeVa4L7hSOWiDDqbogsEoUN8knyH0819VSqXIBY8qy1v3Jple8iC4YbNFkwOHnzzTfVsgB71XHjxqmYAxkwz1UD6m4H3uAOMYU68MADlShWa1+83zoGZIwjYWwdjZ1RAsfqSy+91Em6WZV3tmuB94Ut2gUBRKYq6URdz5w9bpZZZ1EF00wzzeQkf4nKUjlSoomFi+LK37xrYgpEFHxMhos5DcowlCYSo1CJIIoxuEWeSRO7icuialPTz1Z9yOMP4EFClrlddtlFj88ei45FVcCAjH8kjBXw0rW3IACjRo3So5iEXytkP5mSacLD3+kPRBDuCfkrRNEII5wk7yGnhTtME0b6bZwgz9gni4CJyyF7e5K/0+2b5EfPNyCKaJ+32267ksmT5ypicRkMyDyIhDGDk37xJ368Rx55pJoUFanDacKUJ/ExHKTrt3uVrnm1bWDPQHfksCPVTrGWsq1SG+O95jEAXYxa6ebx17FvwlURKOPoo49WrWvHdkQazhTOi1Dliadll1vWHXboYW7tddbOVRGVZx+LWlckjEUdmZzahRnKySef7K655hqVs+VUbaymAgaMwCMrxSAeO0UUUIgMIuSLgUgY88V3IWv74MMP3PBTh6uXjNk6FrKhXd4oCCMeTJjj7LXXXqp4ghPmfoR8MRAJY774LlxttvDwwoFrxBgcLjJru1e4hndZg+AKMXTfZ599HOHDMF0y8UAkjPkPdiSM+eO8sDVi5oKft+Q8dqNHj/bm013YDv//9s7fp40YjuJfVQU6siMQEyQVShYkBgYGCkNYSYYygsTEv8LOwsDEjkBILB0YYaAjf0GZQpe2UKn0PkYGN1xKyI+Lc3mWTpc49+Pr5+Nh++z3+hwYhAf5JY6Ltr6+7sR+5+bm3MR3T4qEKGLMvqJEjNljHv0dEejd3993clrX19du6kv0QQ9ggKz8mZmZsa2tLdvc3NT8xIjqUMQYUWXEFApd6cQJ0Pb29uzo6MhYSqjUGQK+hchVUBhKfLltZ2fHCWpICKIzbLt9toix24jm6Hp051ABOjs7s93dXacww8RppfYRgBwR0Nje3nbEyEoecCZfKR4ERIzx1EXUkaBafnBwYIeHh25ZHfMglVpHgBYh0nDVWtU2Pm9Y4mXuxhJbv4KOzBIBEWOWaA/4vRBfwM6B9dZ4nIRS/gNetJ6GPzk56ZTMMQqjtcgSRqW4ERAxxl0/0UVHt4+pPegUsuYa8VbNfUyvpomJCSfKW6vVnPZk6H2jrnM6ZrHkihhjqYkBiSMcD8P7BFtZ5j+ibI2e4bB3sVEFQlEdlfJqtWoLCwvOcgLc2EieFP1+QKp+qMJ8lRh9ZQ4VKipsSwj4P2xe0FxeXtrx8bF9SexDEXhF4swnf5z/3s4+9ueQ1iBakpVKxdYqa1YqlxwhUtbYY2+nPvJ+TjLh/vF1WFJ5qdYGTbLzjovK1yICPB+s2vAyXxhwMf54cnLi1LBpRfrUCUHG+hwipFssFm11ddWWl5edsG6zMcRYy+DrR/tnBESMz1joU4cIhMQHIZ6fn9vp6alTxvY2AXS1PUGEx792a3/Oa8f18nf+ASD9hQEZK1QWFxdt5dOKax3iY9MsxRB7s9iUn46AiDEdF+V2iIAnPQRiIUW8ty8uLtykcab+0P1+i2p2v8iFcrBkD7HYUqnkxgx5szw7O+u6zr6cwEWM4XcPIa3ptHz/u/bxISBijK9OchNRIxnc/bqz+m3d2QowJsnUH7xW8KDxNrJphec6WRIjAg5If2HSNT8/b0tLS1Yul58sFcJVKiEZhp/DcmQZe3hffW4fARFj+9jpzDciEBLlw58Hu/99bzffbuzq65UjSMyomBvJ8kOsSkNL2W6TC+TGG2QIkBbh+Pi4Iz7WLhc/Fq1YKFqhUDBWpoyOjCavkt9Y2IbDux1/w+X1tcsIPBFj0tx/8fIl6//UXS6bLhcxAv+QZNIF9f7a9XrdkSNjlJAkG4ZVTA2CMN12+91+/Hx08mPMEm8XiMc7+zEOCPElD7fb8x0CxCeG8UE2ptTQPWbDXGt6etqmJqds7MOYvR9Jzn+XbmLfDsFslU7uAAAAu0lEQVTp7yjiB7FJaP8lxibnKFsI9AyBkEQYm4OIPGnSiqTLTUuSVTieCL3pFXaoJN4K4zAIObJxTQy0aBkyrQZi5BiIk62RpMPChb+F+fqcbwREjPmu31yUrhfk1E7LLxdgqhAtIQAxvm/pSB0kBPqEgEisT8AP+W3ltDPkD4CKLwSEwEsERIwvMVGOEBACQ47AU1e6F2M5Q46tii8EhMCAIuBajCLFAa09hS0EhIAQEAJCQAgIgSwQ+AtF2v31adgvyQAAAABJRU5ErkJggg==;imageBackground=none;" vertex="1" parent="1">
                    <mxGeometry x="480" y="309" width="105.47" height="110" as="geometry"/>
                </mxCell>
                <mxCell id="12" style="edgeStyle=none;html=1;fillColor=none;strokeWidth=4;" edge="1" parent="1" source="6" target="2">
                    <mxGeometry relative="1" as="geometry"/>
                </mxCell>
                <mxCell id="6" value="" style="sketch=0;points=[[0,0,0],[0.25,0,0],[0.5,0,0],[0.75,0,0],[1,0,0],[0,1,0],[0.25,1,0],[0.5,1,0],[0.75,1,0],[1,1,0],[0,0.25,0],[0,0.5,0],[0,0.75,0],[1,0.25,0],[1,0.5,0],[1,0.75,0]];outlineConnect=0;fontColor=#232F3E;gradientColor=#60A337;gradientDirection=north;fillColor=#277116;strokeColor=#ffffff;dashed=0;verticalLabelPosition=bottom;verticalAlign=top;align=center;html=1;fontSize=12;fontStyle=0;aspect=fixed;shape=mxgraph.aws4.resourceIcon;resIcon=mxgraph.aws4.s3;" vertex="1" parent="1">
                    <mxGeometry x="150" y="130" width="110" height="110" as="geometry"/>
                </mxCell>
                <mxCell id="16" style="edgeStyle=none;html=1;fillColor=none;strokeWidth=4;" edge="1" parent="1">
                    <mxGeometry relative="1" as="geometry">
                        <mxPoint x="708.9336871508381" y="314" as="targetPoint"/>
                        <mxPoint x="669.6599441340782" y="240" as="sourcePoint"/>
                    </mxGeometry>
                </mxCell>
                <mxCell id="7" value="" style="sketch=0;points=[[0,0,0],[0.25,0,0],[0.5,0,0],[0.75,0,0],[1,0,0],[0,1,0],[0.25,1,0],[0.5,1,0],[0.75,1,0],[1,1,0],[0,0.25,0],[0,0.5,0],[0,0.75,0],[1,0.25,0],[1,0.5,0],[1,0.75,0]];outlineConnect=0;fontColor=#232F3E;gradientColor=#60A337;gradientDirection=north;fillColor=#277116;strokeColor=#ffffff;dashed=0;verticalLabelPosition=bottom;verticalAlign=top;align=center;html=1;fontSize=12;fontStyle=0;aspect=fixed;shape=mxgraph.aws4.resourceIcon;resIcon=mxgraph.aws4.s3;" vertex="1" parent="1">
                    <mxGeometry x="370" y="130" width="110" height="110" as="geometry"/>
                </mxCell>
                <mxCell id="11" style="edgeStyle=none;html=1;entryX=0.25;entryY=1;entryDx=0;entryDy=0;entryPerimeter=0;fillColor=none;strokeWidth=4;" edge="1" parent="1" source="9" target="6">
                    <mxGeometry relative="1" as="geometry"/>
                </mxCell>
                <mxCell id="9" value="" style="sketch=0;pointerEvents=1;shadow=0;dashed=0;html=1;strokeColor=#005700;fillColor=#008a00;labelPosition=center;verticalLabelPosition=bottom;verticalAlign=top;align=center;outlineConnect=0;shape=mxgraph.veeam2.audio_file;fontColor=#ffffff;" vertex="1" parent="1">
                    <mxGeometry x="70" y="314" width="80" height="100" as="geometry"/>
                </mxCell>
                <mxCell id="10" value="" style="sketch=0;pointerEvents=1;shadow=0;dashed=0;html=1;strokeColor=#005700;fillColor=#008a00;labelPosition=center;verticalLabelPosition=bottom;verticalAlign=top;align=center;outlineConnect=0;shape=mxgraph.veeam2.audio_file;fontColor=#ffffff;" vertex="1" parent="1">
                    <mxGeometry x="693.47" y="314" width="80" height="100" as="geometry"/>
                </mxCell>
                <mxCell id="17" value="Amazon Transcribe" style="text;html=1;resizable=0;autosize=1;align=center;verticalAlign=middle;points=[];fillColor=none;rounded=0;strokeWidth=0;fontFamily=Amazon Ember;fontSize=16;" vertex="1" parent="1">
                    <mxGeometry x="234" y="430" width="160" height="20" as="geometry"/>
                </mxCell>
                <mxCell id="18" value="Amazon Polly" style="text;html=1;resizable=0;autosize=1;align=center;verticalAlign=middle;points=[];fillColor=none;rounded=0;strokeWidth=0;fontFamily=Amazon Ember;fontSize=16;" vertex="1" parent="1">
                    <mxGeometry x="580.47" y="100" width="120" height="20" as="geometry"/>
                </mxCell>
                <mxCell id="19" value="WAV File" style="text;html=1;resizable=0;autosize=1;align=center;verticalAlign=middle;points=[];fillColor=none;rounded=0;strokeWidth=0;fontFamily=Amazon Ember;fontSize=16;" vertex="1" parent="1">
                    <mxGeometry x="70" y="430" width="80" height="20" as="geometry"/>
                </mxCell>
                <mxCell id="20" value="MP3 File" style="text;html=1;resizable=0;autosize=1;align=center;verticalAlign=middle;points=[];fillColor=none;rounded=0;strokeWidth=0;fontFamily=Amazon Ember;fontSize=16;" vertex="1" parent="1">
                    <mxGeometry x="693.47" y="430" width="80" height="20" as="geometry"/>
                </mxCell>
                <mxCell id="21" value="Amazon S3" style="text;html=1;resizable=0;autosize=1;align=center;verticalAlign=middle;points=[];fillColor=none;rounded=0;strokeWidth=0;fontFamily=Amazon Ember;fontSize=16;" vertex="1" parent="1">
                    <mxGeometry x="155" y="100" width="100" height="20" as="geometry"/>
                </mxCell>
                <mxCell id="22" value="Amazon S3" style="text;html=1;resizable=0;autosize=1;align=center;verticalAlign=middle;points=[];fillColor=none;rounded=0;strokeWidth=0;fontFamily=Amazon Ember;fontSize=16;" vertex="1" parent="1">
                    <mxGeometry x="375" y="100" width="100" height="20" as="geometry"/>
                </mxCell>
                <mxCell id="23" value="OpenAI ChatGPT" style="text;html=1;resizable=0;autosize=1;align=center;verticalAlign=middle;points=[];fillColor=none;rounded=0;strokeWidth=0;fontFamily=Amazon Ember;fontSize=16;" vertex="1" parent="1">
                    <mxGeometry x="457.73" y="430" width="150" height="20" as="geometry"/>
                </mxCell>
                <mxCell id="25" value="2" style="strokeWidth=2;html=1;shape=mxgraph.flowchart.start_2;whiteSpace=wrap;fontSize=16;fillColor=none;" vertex="1" parent="1">
                    <mxGeometry x="120" y="260" width="30" height="30" as="geometry"/>
                </mxCell>
                <mxCell id="26" value="1" style="strokeWidth=2;html=1;shape=mxgraph.flowchart.start_2;whiteSpace=wrap;fontSize=16;fillColor=none;" vertex="1" parent="1">
                    <mxGeometry x="30" y="349" width="30" height="30" as="geometry"/>
                </mxCell>
                <mxCell id="28" value="3" style="strokeWidth=2;html=1;shape=mxgraph.flowchart.start_2;whiteSpace=wrap;fontSize=16;fillColor=none;" vertex="1" parent="1">
                    <mxGeometry x="270" y="260" width="30" height="30" as="geometry"/>
                </mxCell>
                <mxCell id="29" value="4" style="strokeWidth=2;html=1;shape=mxgraph.flowchart.start_2;whiteSpace=wrap;fontSize=16;fillColor=none;" vertex="1" parent="1">
                    <mxGeometry x="330" y="260" width="30" height="30" as="geometry"/>
                </mxCell>
                <mxCell id="30" value="5" style="strokeWidth=2;html=1;shape=mxgraph.flowchart.start_2;whiteSpace=wrap;fontSize=16;fillColor=none;" vertex="1" parent="1">
                    <mxGeometry x="485" y="260" width="30" height="30" as="geometry"/>
                </mxCell>
                <mxCell id="31" value="6" style="strokeWidth=2;html=1;shape=mxgraph.flowchart.start_2;whiteSpace=wrap;fontSize=16;fillColor=none;" vertex="1" parent="1">
                    <mxGeometry x="550" y="260" width="30" height="30" as="geometry"/>
                </mxCell>
                <mxCell id="32" value="7" style="strokeWidth=2;html=1;shape=mxgraph.flowchart.start_2;whiteSpace=wrap;fontSize=16;fillColor=none;" vertex="1" parent="1">
                    <mxGeometry x="700" y="260" width="30" height="30" as="geometry"/>
                </mxCell>
                <mxCell id="33" value="8" style="strokeWidth=2;html=1;shape=mxgraph.flowchart.start_2;whiteSpace=wrap;fontSize=16;fillColor=none;" vertex="1" parent="1">
                    <mxGeometry x="780" y="349" width="30" height="30" as="geometry"/>
                </mxCell>
                <mxCell id="35" style="edgeStyle=none;html=1;fillColor=none;strokeWidth=4;" edge="1" parent="1">
                    <mxGeometry relative="1" as="geometry">
                        <mxPoint x="454.1029329608939" y="240" as="sourcePoint"/>
                        <mxPoint x="495.632067039106" y="309" as="targetPoint"/>
                    </mxGeometry>
                </mxCell>
            </root>
        </mxGraphModel>
    </diagram>
</mxfile>